<?xml version="1.0" encoding="utf-8"?>
<!-- Generator: Adobe Illustrator 16.0.0, SVG Export Plug-In . SVG Version: 6.00 Build 0)  -->
<!DOCTYPE svg PUBLIC "-//W3C//DTD SVG 1.1//EN" "http://www.w3.org/Graphics/SVG/1.1/DTD/svg11.dtd">
<svg version="1.1" id="Layer_1" xmlns="http://www.w3.org/2000/svg" xmlns:xlink="http://www.w3.org/1999/xlink" x="0px" y="0px"
	 width="3024px" height="3024px" viewBox="0 0 3024 3024" enable-background="new 0 0 3024 3024" xml:space="preserve">
<path d="M1386.988,2053.054L824.01,1441.511c-7.893-8.497-19.838-11.431-30.512-7.47c-10.856,3.811-18.266,13.729-18.9,25.16
	l-33.445,577.766c-0.727,13.547,8.074,25.432,20.562,29c1.996,0.604,4.144,0.967,6.26,0.998l596.424,33.868
	c11.552,0.665,22.378-5.715,27.367-16.208C1396.725,2074.07,1394.82,2061.643,1386.988,2053.054z M1136.934,2038.236
	c-4.355,15.15-20.141,23.829-35.26,19.565c-15.09-4.354-23.859-20.079-19.475-35.229l16.511-57.456l-129.155-36.953l-16.511,57.486
	c-4.385,15.12-20.11,23.89-35.169,19.535c-15.12-4.294-23.859-20.05-19.505-35.14l16.42-57.546l-92.051-26.31
	c-15.12-4.324-23.858-20.079-19.505-35.199c4.295-15.12,20.05-23.859,35.17-19.535l92.11,26.309l36.228-126.402
	c4.355-15.09,20.141-23.829,35.199-19.535c15.09,4.354,23.859,20.109,19.535,35.26l-36.287,126.373l129.185,36.953l6.019-20.926
	c4.324-15.06,20.049-23.89,35.199-19.535c15.119,4.294,23.828,20.049,19.535,35.199L1136.934,2038.236z M1721.352,1181.81
	l-129.246-36.953l-38.223,133.419l129.154,36.923L1721.352,1181.81z M1646.086,956.538l129.199,36.97l-38.21,133.531l-129.199-36.97
	L1646.086,956.538z M1667.373,1369.993l-129.186-36.923l-38.313,133.389l129.216,36.923L1667.373,1369.993z M1516.125,715.865
	l129.17,36.961l-38.176,133.415l-129.17-36.961L1516.125,715.865z M1462.188,904.003l129.054,36.929l-38.2,133.502l-129.055-36.929
	L1462.188,904.003z M1829.309,805.352l-129.186-36.923l-38.314,133.389l129.276,36.983L1829.309,805.352z M2013.229,857.939
	l-129.186-36.953l-38.314,133.448l129.186,36.954L2013.229,857.939z M1829.989,1009.155l129.213,36.93l-38.159,133.516
	l-129.213-36.93L1829.989,1009.155z M1776.034,1197.405l129.212,36.929l-38.125,133.4l-129.213-36.93L1776.034,1197.405z
	 M1851.293,1422.55l-129.155-36.923l-38.313,133.419l129.154,36.923L1851.293,1422.55z M1407.521,888.36l-129.185-36.923
	l-38.314,133.479l129.186,36.953L1407.521,888.36z M964.494,558.014l129.141,36.939l-38.17,133.444l-129.141-36.94L964.494,558.014z
	 M780.563,505.517l129.241,36.951l-38.164,133.487l-129.242-36.951L780.563,505.517z M2642.492,414.258
	c-204.332-58.424-326.652-23.375-331.854-21.863c-9.284,2.812-16.512,10.1-19.203,19.504l-98.008,341.44L677.467,319.849
	c-15.09-4.324-30.814,4.445-35.169,19.565L564.46,610.848l-83.342-90.508c-7.802-8.438-19.867-11.461-30.542-7.439
	c-10.796,3.78-18.175,13.729-18.84,25.16l-38.889,670.935l-262.241,914.276c-4.294,15.12,4.445,30.875,19.535,35.229l184.706,52.799
	l-10.342,179.051c-0.787,13.548,8.043,25.433,20.441,29.03c2.026,0.575,4.174,0.908,6.32,0.998l891.748,50.592l748.137,213.947
	c325.231,92.958,373.041-73.785,398.715-163.446l446.01-1554.76l65.711-229.128C2934.066,624.365,2846.008,472.5,2642.492,414.258z
	 M733.773,462.43c4.324-15.09,20.079-23.859,35.199-19.535L2056.29,810.977c15.06,4.385,23.859,20.14,19.505,35.229
	l-287.189,1001.428c-4.385,15.15-20.141,23.92-35.291,19.596c-15.059-4.385-23.799-20.14-19.504-35.229l63.474-221.267
	l-129.155-36.923l-32.115,111.888c-4.385,15.12-20.079,23.92-35.169,19.565c-15.12-4.324-23.859-20.079-19.565-35.199
	l32.115-111.918l-156.553-44.756c-15.119-4.324-23.859-20.049-19.504-35.199l46.115-160.816l-129.186-36.923l-22.468,78.321
	c-4.354,15.12-20.14,23.89-35.26,19.565c-15.09-4.324-23.799-20.049-19.475-35.169l22.438-78.382l-156.463-44.755
	c-15.119-4.325-23.859-20.11-19.534-35.17l46.116-160.816l-129.216-36.983l-14.515,50.652c-4.325,15.12-20.08,23.92-35.2,19.596
	c-15.149-4.324-23.859-20.11-19.505-35.229l68.494-238.927l-129.095-36.923l-37.256,129.851
	c-4.324,15.12-20.079,23.92-35.229,19.596c-15.12-4.385-23.859-20.14-19.505-35.229l37.195-129.881l-150.988-43.184
	c-2.026-0.12-3.901,0.092-5.837-0.453c-15.119-4.324-23.889-20.109-19.564-35.229L733.773,462.43z M334.484,2060.796
	c-4.264,15.089-20.049,23.829-35.169,19.535c-15.12-4.354-23.859-20.11-19.535-35.26l31.026-108.078
	c4.324-15.06,20.109-23.859,35.169-19.535c15.15,4.294,23.859,20.049,19.535,35.199L334.484,2060.796z M382.989,2365.101
	L484.717,608.398l215.43,234.088l-63.655,56.821c-11.793,10.493-12.791,28.485-2.328,40.219c3.72,4.233,8.347,7.016,13.366,8.407
	c9.102,2.601,19.293,0.635,26.822-6.108l64.381-57.456l72.909,79.168l-64.048,57.153c-11.794,10.493-12.792,28.486-2.329,40.189
	c3.75,4.233,8.377,7.016,13.366,8.437c9.042,2.601,19.323,0.605,26.822-6.108l64.744-57.788l72.939,79.259l-64.381,57.396
	c-11.764,10.493-12.762,28.516-2.329,40.249c3.78,4.173,8.407,6.955,13.366,8.407c9.072,2.601,19.293,0.635,26.854-6.139
	l64.985-58.031l72.938,79.199l-64.683,57.728c-11.794,10.434-12.792,28.486-2.298,40.189c3.688,4.233,8.346,6.985,13.335,8.437
	c9.103,2.601,19.233,0.636,26.823-6.139l65.349-58.363l72.938,79.26l-65.046,57.97c-11.703,10.433-12.761,28.486-2.329,40.219
	c3.721,4.174,8.407,6.956,13.367,8.347c9.102,2.57,19.293,0.635,26.853-6.078l65.651-58.636l72.938,79.259l-65.349,58.273
	c-11.764,10.493-12.73,28.485-2.298,40.249c3.749,4.173,8.376,6.925,13.336,8.376c9.103,2.602,19.323,0.636,26.823-6.108
	l65.982-58.907l72.939,79.168l-65.621,58.605c-11.732,10.463-12.761,28.456-2.328,40.189c3.72,4.233,8.406,6.955,13.366,8.406
	c9.103,2.57,19.293,0.635,26.823-6.108l66.346-59.18l72.909,79.229l-65.894,58.787c-11.793,10.493-12.761,28.485-2.328,40.188
	c3.72,4.173,8.406,6.985,13.306,8.438c9.103,2.57,19.323,0.604,26.853-6.17l66.589-59.36l72.878,79.168l-66.256,59.089
	c-11.732,10.493-12.821,28.486-2.328,40.22c3.72,4.264,8.347,7.016,13.336,8.406c9.103,2.57,19.264,0.635,26.854-6.108
	l66.951-59.784l72.879,79.229l-66.528,59.422c-11.824,10.493-12.762,28.456-2.298,40.158c3.688,4.204,8.376,6.956,13.336,8.438
	c9.102,2.631,19.322,0.635,26.822-6.169l67.254-59.967l77.354,84.037l-39.433,137.592c-2.903,9.979-0.121,20.715,7.228,27.973
	c7.318,7.348,18.053,10.07,28.093,7.167c0.756-0.182,58.394-15.453,158.155-5.383l223.262,242.464L382.989,2365.101z
	 M2372.177,2377.016c-37.589-74.36-118.42-143.73-241.346-178.87c-131.937-37.709-229.733-36.499-283.802-30.481l494.424-1723.832
	c36.106-6.38,137.229-17.146,285.344,25.16c186.521,53.373,241.043,180.049,220.057,252.928L2372.177,2377.016z M1094.326,798.85
	l129.184,36.935l-38.182,133.545l-129.184-36.935L1094.326,798.85z M1277.609,647.62l-129.215-36.954l-38.284,133.389
	l129.276,36.954L1277.609,647.62z M1461.499,700.177l-129.185-36.923l-38.284,133.419l129.185,36.953L1461.499,700.177z
	 M1537.401,1129.191l-129.124-36.923l-38.314,133.419l129.154,36.923L1537.401,1129.191z M1224.268,1039.748l129.184,36.935
	l-38.148,133.429l-129.184-36.935L1224.268,1039.748z"/>
</svg>
