<svg xmlns="http://www.w3.org/2000/svg" xmlns:xlink="http://www.w3.org/1999/xlink" version="1.1" x="0px" y="0px" viewBox="0 0 100 100" enable-background="new 0 0 100 100" xml:space="preserve"><path d="M90.584,7.293c-2.78-2.488-23.601,18.964-28.232,24.042c-4.112,4.509-25.019,28.167-27.17,35.239  c0.442,0.277,0.88,0.589,1.31,0.94c0.245,0.198,0.474,0.407,0.695,0.62c7.162-3.377,29.757-27.392,33.105-31.396  C74.042,32.254,92.68,9.168,90.584,7.293z"></path><path d="M34.547,69.224c-4.298-3.502-8.75-2.129-12.114,1.755c-3.33,3.846-2.648,10.23-3,12.373  c-0.796,4.855-10.182,8.781-10.182,8.781s11.561,3.57,21.354-4.615C37.132,82.063,40.112,73.757,34.547,69.224z"></path></svg>