<?xml version="1.0" encoding="utf-8"?>
<!-- Generator: Adobe Illustrator 16.0.0, SVG Export Plug-In . SVG Version: 6.00 Build 0)  -->
<!DOCTYPE svg PUBLIC "-//W3C//DTD SVG 1.1//EN" "http://www.w3.org/Graphics/SVG/1.1/DTD/svg11.dtd">
<svg version="1.1" id="XMLID_1_" xmlns="http://www.w3.org/2000/svg" xmlns:xlink="http://www.w3.org/1999/xlink" x="0px" y="0px"
	 width="3024px" height="3024px" viewBox="0 0 3024 3024" enable-background="new 0 0 3024 3024" xml:space="preserve">
<path d="M2991.652,1631.998l-86.065-59.097c4.643,27.375,10.059,54.013,16.211,79.618L1436.03,2388.752
	c-32.422,15.069-69.117,31.316-111.303,10.059L270.944,1871.514c-102.093-51.175-178.505-207.832-170.584-350.082
	c7.848-142.215,97.008-216.084,199.137-165.02c0,0,978.661,491.779,1013.183,507.07c40.196,17.758,57.512,25.348,128.324-6.633
	l1550.28-768.729c0,0,28.037-9.138,28.037-30.102c0-20.927-27.964-31.353-27.964-31.353
	c-259.265-118.562-886.405-392.931-1098.621-498.854c-113.439-56.628-203.927,0.626-203.927,0.626
	c-362.608,170.988-1504.263,709.154-1558.017,740.36C54.38,1313.122,7,1403.166,0.737,1515.942
	c-10.168,184.142,86.766,375.356,225.553,444.77l1099.027,549.955c27.963,14.037,60.864,14.074,88.902,0.184l1576.807-802.219
	c0,0,32.974-15.585,32.974-36.512C3024,1652.298,2991.652,1631.998,2991.652,1631.998z"/>
</svg>
