<svg xmlns="http://www.w3.org/2000/svg" xmlns:xlink="http://www.w3.org/1999/xlink" version="1.1" x="0px" y="0px" viewBox="0 0 100 100" enable-background="new 0 0 100 100" xml:space="preserve"><g><path fill="#000000" d="M51.5,4.549l-0.604-0.703L50.29,4.549c-1.329,1.542-32.56,38.002-32.56,56.841   c0,19.818,14.258,34.762,33.166,34.762c18.908,0,33.166-14.943,33.166-34.762C84.062,42.551,52.83,6.092,51.5,4.549z    M82.107,66.341h-5.591c0.314-0.223,0.55-0.404,0.649-0.503c0,0,0.369-0.636-0.266-0.582c0,0-2.06,0.159-2.484,0   c0,0,1.587-1.106,2.274-1.266c0,0,0.845-0.424,0-0.846c0,0-2.801-2.324-3.489-2.696c0,0-1.26-0.826-3.189-1.725V48.81h9.216   c1.99,4.644,3.236,8.981,3.236,12.581C82.464,63.086,82.317,64.728,82.107,66.341z M68.414,89.283   c-4.748,3.209-10.451,5.083-16.716,5.231v-8.453h16.716V89.283z M70.012,86.062h2.366c-0.754,0.722-1.543,1.401-2.366,2.042V86.062   z M33.074,86.062h17.027v8.455c-6.399-0.153-12.22-2.09-17.027-5.423V86.062z M31.477,87.867c-0.715-0.569-1.402-1.173-2.064-1.806   h2.064V87.867z M33.074,65.505c0.628,0.217,1.306,0.498,1.995,0.836h-1.995V65.505z M31.477,66.341H27.89   c0.089-0.142,1.138-1.763,2.148-1.612c0,0,0.574,0.082,1.438,0.301V66.341z M63.376,56.646c0,0-0.898-2.96-3.225-5.441h-0.635   v0.526h-0.527v0.583l-0.635,0.316l-0.316,0.476h-0.58l-0.318,0.529h-0.58l-0.477,0.476L55.45,54.06l-0.317,0.262l-0.844,0.051   l-0.529,0.056l-0.529-0.056l-0.422,0.32h-0.74l-0.369,0.266h-0.001V48.81h16.716v9.229C66.913,57.445,65.179,56.903,63.376,56.646z    M51.698,47.212V30.148h16.716v17.064H51.698z M70.012,32.057c3.231,5.011,6.245,10.223,8.504,15.155h-8.504V32.057z    M51.698,28.552V7.266c2.84,3.422,9.554,11.731,15.999,21.286H51.698z M50.101,28.552H34.095   c6.451-9.563,13.17-17.879,16.006-21.295V28.552z M33.074,30.148h17.027v17.064H33.074V30.148z M31.477,47.212h-8.2   c2.188-4.776,5.084-9.814,8.2-14.68V47.212z M50.101,48.81v6.838l-0.462,0.629c0,0-1.426,0.898-2.378-0.211   c0,0-3.327-3.225-6.022-3.275c0,0,2.007,1.057,3.486,3.381c0,0,0.687,1.374-0.951,1.902c0,0-5.811,2.537-7.449,3.276   c0,0-1.592,0.65-3.251,1.189V48.81H50.101z M37.836,67.938c1.181,0.703,2.869,1.697,3.772,2.182c0,0,1.691,0.949,0.952,1.848   c0,0-2.007,2.271-3.857,2.746c0,0,1.215,0.424,5.019-1.69c0,0,1.48-1.373,3.277-1.004c0,0,1.23,0.3,3.102,0.558v11.887H33.074   V67.938H37.836z M51.698,84.464V72.766c2.075,0.202,4.601,0.283,7.08-0.059l-1.742,2.746c0,0,1.162-0.159,1.955-0.686   c0,0,0.315,2.061,0.793,2.693c0,0,1.797-1.215,2.746-5.178c0,0,2.9-0.561,5.884-1.549v13.729H51.698z M71.248,62.932   c0-0.428,0.346-0.774,0.775-0.774c0.427,0,0.774,0.347,0.774,0.774s-0.348,0.775-0.774,0.775   C71.594,63.707,71.248,63.361,71.248,62.932z M22.564,48.81h8.913v14.196c-0.586,0.146-1.114,0.245-1.491,0.245   c0,0-0.899,0-1.428-0.739c0,0-3.646-4.967-7.026-5.972c0,0,2.642,3.699,3.646,6.395c0,0,0.581,1.689-0.106,3.115   c0,0-0.059,0.112-0.153,0.291h-5.235c-0.211-1.613-0.357-3.255-0.357-4.95C19.327,57.791,20.573,53.453,22.564,48.81z    M19.903,67.938h4.162c-0.84,1.546-1.977,3.569-2.48,4.136c0,0,2.295-0.662,5.116-4.136h4.775v16.525h-3.63   C23.838,80.03,21.037,74.379,19.903,67.938z M73.943,84.464h-3.932V70.161c0.859-0.333,1.683-0.699,2.398-1.101   c0,0,0.793-0.507,1.737-1.122h7.74C80.755,74.379,77.953,80.03,73.943,84.464z"></path></g></svg>