<svg xmlns="http://www.w3.org/2000/svg" xmlns:xlink="http://www.w3.org/1999/xlink" version="1.1" x="0px" y="0px" viewBox="0 0 100 100" enable-background="new 0 0 100 100" xml:space="preserve"><g><path d="M82.798,30.976c2.816-1.688,1.268-9.994,1.268-9.994c-0.846-6.335,1.549-8.728,1.549-8.728   c-4.928,1.267-3.801,8.728-3.801,8.728C83.36,27.879,82.798,30.976,82.798,30.976z"></path><path d="M93.778,15.069c0,0-4.646,0.985-6.053,4.363c0,0-0.846,3.238-1.127,6.898c0,0,1.549,9.994-14.357,10.979   c0,0,16.75,3.66,17.174-9.854C89.415,27.457,89.696,17.181,93.778,15.069z"></path><path d="M94.2,25.768c0,0-0.422,9.432-7.18,11.543C87.021,37.311,98.001,35.902,94.2,25.768z"></path><path d="M82.915,46.742c0,0-3.316,0.097-7.033,0.935l0.055-4.454h2.967v-2.815H11.616v2.815h2.967l0.057,4.454   c-3.719-0.838-7.035-0.935-7.035-0.935c-1.438,0-2.604,1.166-2.604,2.604c0,1.439,1.166,2.604,2.604,2.604   c0,0,3.193,0.425,7.105,1.479l0.076,6.125c0,0-1.34,23.647,8.938,26.604c5.18,1.491,16.312,1.616,21.537,1.586   c5.223,0.03,16.357-0.095,21.537-1.586c10.275-2.956,8.936-26.604,8.936-26.604l0.076-6.125c3.912-1.054,7.105-1.479,7.105-1.479   c1.439,0,2.605-1.165,2.605-2.604C85.521,47.908,84.354,46.742,82.915,46.742z M28.181,84.608   c-8.611-4.192-8.682-25.059-8.682-25.059V43.223h3.973V59.55c0,0-1.062,20.977,6.77,25.059H28.181z"></path><path d="M10.63,38.93l67.033-5.857l-0.244-2.805l-1.201,0.104c0-0.022,0.004-0.047,0.002-0.071   c-0.271-3.108-10.016-4.907-23.205-4.646l-0.242-2.011c-1.234,0.152-2.053,0.082-2.406-0.204c-0.391-0.317-0.543-1.198-0.648-2.424   l0.035-0.002c-0.406-4.663-3.811-8.188-7.582-7.858c-0.008,0.002-0.014,0.003-0.021,0.004c-0.006,0-0.01,0-0.018,0   c-3.773,0.33-6.514,4.392-6.105,9.053l0.035-0.002c0.107,1.226,0.113,2.118-0.219,2.499c-0.297,0.343-1.09,0.552-2.334,0.619   l0.109,2.021c-13.035,2.031-22.318,5.494-22.047,8.602c0.002,0.023,0.012,0.046,0.014,0.068l-1.199,0.105L10.63,38.93z    M37.544,26.186c0.945-1.089,0.898-2.595,0.762-4.17c-0.299-3.418,1.514-6.377,4.041-6.612c2.529-0.206,4.828,2.394,5.127,5.811   c0.139,1.575,0.355,3.066,1.475,3.976c0.312,0.255,0.695,0.427,1.119,0.556c-2.191,0.092-4.457,0.235-6.777,0.438   c-2.322,0.203-4.58,0.455-6.754,0.745C36.933,26.727,37.278,26.491,37.544,26.186z M34.491,28.664   c-7.635,1.814-12.475,4.049-12.297,6.071c0.01,0.119,0.043,0.235,0.088,0.35l-4.008,0.351c-0.031-0.086-0.053-0.173-0.059-0.263   C18.026,33,24.61,30.517,34.491,28.664z"></path></g></svg>