<svg xmlns="http://www.w3.org/2000/svg" xmlns:xlink="http://www.w3.org/1999/xlink" version="1.1" x="0px" y="0px" viewBox="0 0 100 100" enable-background="new 0 0 100 100" xml:space="preserve"><g><rect x="-192" width="185" height="99"></rect><rect y="-36" width="100" height="30"></rect><text transform="matrix(1 0 0 1 66 -19.5)" fill="#000000" font-family="'Helvetica'" font-size="2.4">http://thenounproject.com</text><text transform="matrix(1 0 0 1 7.166 -24.5)"><tspan x="0" y="0" fill="#000000" font-family="'Helvetica-Bold'" font-size="6.1578">The Noun Project</tspan><tspan x="1.12" y="4.8" fill="#000000" font-family="'Helvetica-Bold'" font-size="4">Icon Template</tspan></text><text transform="matrix(1 0 0 1 -178.5 10.5)" fill="#000000" font-family="'Helvetica-Bold'" font-size="6.1578">Reminders</text><line fill="#000000" stroke="#FFFFFF" stroke-miterlimit="10" x1="8" y1="-14.5" x2="18" y2="-14.5"></line><line fill="#000000" stroke="#FFFFFF" stroke-miterlimit="10" x1="-179" y1="16.5" x2="-162" y2="16.5"></line><g><g><g><rect x="-170.802" y="31.318" fill="#000000" width="8.721" height="8.642"></rect><path fill="#000000" d="M-164.455,42.312h4.747v-4.703h-4.747V42.312z M-159.266,42.749h-5.63V37.17h5.63V42.749      L-159.266,42.749z M-166.221,44.062h8.279v-8.203h-8.279V44.062L-166.221,44.062z M-157.5,44.5h-9.163v-9.079h9.163V44.5      L-157.5,44.5z"></path><polygon fill="#000000" points="-166.149,44.133 -166.292,43.991 -158.013,35.787 -157.871,35.929     "></polygon></g></g></g><rect x="-179" y="58" fill="none" width="35" height="32.5"></rect><text transform="matrix(1 0 0 1 -179 60.1299)"><tspan x="0" y="0" fill="#000000" font-family="'Helvetica-Bold'" font-size="3">Strokes</tspan><tspan x="0" y="5" fill="#000000" font-family="'Helvetica'" font-size="2.4">Try to keep strokes at 4px</tspan><tspan x="0" y="10" fill="#000000" font-family="'Helvetica'" font-size="2.4">Minimum stroke weight is 2px</tspan><tspan x="0" y="14.5" fill="#000000" font-family="'Helvetica'" font-size="2.4">For thicker strokes use even </tspan><tspan x="0" y="17.5" fill="#000000" font-family="'Helvetica'" font-size="2.4">numbers: 6px, 8px etc.</tspan><tspan x="0" y="22" fill="#000000" font-family="'Helvetica-Bold'" font-size="2.4">Remember to expand strokes </tspan><tspan x="0" y="25" fill="#000000" font-family="'Helvetica-Bold'" font-size="2.4">before saving as an SVG </tspan></text><rect x="-136.5" y="58" fill="none" width="35" height="32.5"></rect><text transform="matrix(1 0 0 1 -136.5 60.1299)"><tspan x="0" y="0" fill="#000000" font-family="'Helvetica-Bold'" font-size="3">Size</tspan><tspan x="0" y="5" fill="#000000" font-family="'Helvetica'" font-size="2.4">Cannot be wider or taller than </tspan><tspan x="0" y="8.5" fill="#000000" font-family="'Helvetica'" font-size="2.4">100px (artboard size)</tspan><tspan x="0" y="13.5" fill="#000000" font-family="'Helvetica'" font-size="2.4">Scale your icon to fill as much of </tspan><tspan x="0" y="16.5" fill="#000000" font-family="'Helvetica'" font-size="2.4">the artboard as possible</tspan></text><rect x="-94" y="58" fill="none" width="35" height="32.5"></rect><text transform="matrix(1 0 0 1 -94 60.1299)"><tspan x="0" y="0" fill="#000000" font-family="'Helvetica-Bold'" font-size="3">Ungroup</tspan><tspan x="0" y="5" fill="#000000" font-family="'Helvetica'" font-size="2.4">If your design has more than one </tspan><tspan x="0" y="8" fill="#000000" font-family="'Helvetica'" font-size="2.4">shape, make sure to ungroup</tspan></text><rect x="-50" y="58" fill="none" width="35" height="32.5"></rect><text transform="matrix(1 0 0 1 -50 60.1299)"><tspan x="0" y="0" fill="#000000" font-family="'Helvetica-Bold'" font-size="3">Save as</tspan><tspan x="0" y="5" fill="#000000" font-family="'Helvetica'" font-size="2.4">Save as .SVG and make sure “Use </tspan><tspan x="0" y="8" fill="#000000" font-family="'Helvetica'" font-size="2.4">Artboards” is checked</tspan></text><text transform="matrix(1.0074 0 0 1 -125.542 30.5933)" fill="#000000" font-family="'Helvetica'" font-size="2.5731">100px</text><text transform="matrix(1.0074 0 0 1 -41 39)" fill="#000000" font-family="'Helvetica-Bold'" font-size="5.1462">.SVG</text><rect x="-126.514" y="34.815" fill="#000000" width="10.261" height="10.185"></rect><rect x="-126.477" y="31.766" fill="#000000" width="0.522" height="2.337"></rect><rect x="-116.813" y="31.766" fill="#000000" width="0.523" height="2.337"></rect><rect x="-127" y="32.337" fill="#000000" width="11.233" height="0.572"></rect><g><rect x="-83.805" y="33.844" fill="#000000" width="10.305" height="10.156"></rect><rect x="-76.809" y="28.707" fill="#000000" width="3.308" height="3.261"></rect></g><rect x="-178.5" y="22.5" fill="#000000" stroke="#FFFFFF" stroke-miterlimit="10" width="30" height="30"></rect><rect x="-136.5" y="22.5" fill="#000000" stroke="#FFFFFF" stroke-miterlimit="10" width="30" height="30"></rect><rect x="-93.5" y="22.5" fill="#000000" stroke="#FFFFFF" stroke-miterlimit="10" width="30" height="30"></rect><rect x="-49.5" y="22.5" fill="#000000" stroke="#FFFFFF" stroke-miterlimit="10" width="30" height="30"></rect></g><g><path d="M99.986,58.781L82.824,25.404l-0.865-1.688v-0.695c-8.643,2.493-18.668,4.012-29.384,4.218   c-0.339-0.934-0.722-1.865-1.196-2.798c1.106-1.293,1.764-2.915,1.764-4.673c0-2.374-1.195-4.494-3.07-5.896   c-1.875,1.402-3.072,3.523-3.072,5.896c0,1.758,0.658,3.377,1.762,4.67c-0.479,0.934-0.861,1.868-1.2,2.805   c-10.716-0.203-20.731-1.708-29.373-4.201v0.638L17.303,25.4L0.139,58.781v0.004c0.003,0.007,0.007,0.017,0.013,0.022   c3.636,5.91,10.43,9.882,18.218,9.882c7.748,0,14.522-3.936,18.165-9.805c0.016-0.023,0.029-0.047,0.046-0.07l-0.017-0.033   L19.4,25.404l-0.578-1.133c7.588,3.879,17.141,6.372,27.617,6.837c-0.095,0.422-0.178,0.844-0.258,1.27   c-0.289,1.559-0.466,3.118-0.555,4.677c-0.106,1.559-0.053,3.118,0.283,4.676c0.641,3.118,2.263,6.235,2.556,9.354   c0.176,1.559,0.126,3.117-0.07,4.676c-0.193,1.559-0.599,3.118-1.054,4.677c-0.462,1.559-0.951,3.118-1.283,4.677   c-0.366,1.56-0.509,3.117-0.702,4.677c-0.189,1.559-0.382,3.118-0.515,4.677c-0.126,1.559-0.18,3.121-0.1,4.68   c0.156,3.117,0.645,6.235,1.383,9.354c0.386,1.559,0.825,3.117,1.383,4.677c0.13,0.358,0.262,0.718,0.406,1.076   c-11.467,0.253-21.27,2.523-26.179,5.747h56.671c-4.912-3.224-14.711-5.491-26.178-5.747c0.143-0.358,0.275-0.718,0.405-1.076   c0.558-1.56,0.997-3.118,1.383-4.677c0.737-3.118,1.227-6.236,1.383-9.354c0.079-1.559,0.026-3.121-0.101-4.68   c-0.133-1.559-0.328-3.118-0.515-4.677c-0.192-1.56-0.336-3.117-0.702-4.677c-0.332-1.559-0.82-3.118-1.282-4.677   c-0.456-1.559-0.86-3.118-1.054-4.677c-0.196-1.559-0.246-3.117-0.07-4.676c0.293-3.119,1.916-6.236,2.557-9.354   c0.336-1.558,0.389-3.117,0.283-4.676c-0.091-1.559-0.268-3.118-0.556-4.677c-0.08-0.425-0.166-0.851-0.26-1.273   c10.479-0.476,20.036-2.975,27.622-6.867l-0.6,1.164l-17.16,33.381v0.004c0,0.007,0.006,0.017,0.01,0.022   c3.639,5.91,10.434,9.882,18.219,9.882c7.75,0,14.523-3.936,18.168-9.805c0.016-0.023,0.029-0.047,0.043-0.07L99.986,58.781z    M32.439,58.781H4.264L18.356,25.49L32.439,58.781z M67.688,58.781L81.781,25.49l14.08,33.291H67.688z"></path></g></svg>