<svg xmlns="http://www.w3.org/2000/svg" xmlns:xlink="http://www.w3.org/1999/xlink" version="1.1" x="0px" y="0px" viewBox="0 0 100 100" enable-background="new 0 0 100 100" xml:space="preserve"><g><path fill-rule="evenodd" clip-rule="evenodd" d="M56.17,18.878c1.777-5.175,1.354-9.062-1.434-12.506L35.684,44.755l3.953,7.487   L56.17,18.878z"></path><path fill-rule="evenodd" clip-rule="evenodd" d="M24.752,71.905c-1.71-2.271-4.103-3.967-7.256-3.976   c-4.061-0.005-7.675,3.492-9.686,8.061c-2.82,6.429-2.073,11.881,1.363,15.231c4.23,4.131,9.075,0.775,13.464-4.517   c3.506-7.144,7.008-14.287,10.514-21.431l-2.279-4.606L24.752,71.905z M21.152,82.955c-2.017,4.765-6.025,7.416-8.827,6.288   c-2.801-1.128-3.802-6.27-1.875-11.067c1.936-4.809,5.72-7.421,8.521-6.294C21.772,73.01,24,76.216,21.152,82.955z"></path><path fill-rule="evenodd" clip-rule="evenodd" d="M59.046,70.543c-4.896-4.042-10.217-2.481-13.018,1.847L14.601,6.424   c-2.623,2.561-3.29,6.241-2.627,10.687l19.011,39.61l4.681,3.643l12.6,27.277c1.49,2.467,3.299,4.366,5.799,5.006   c6.505,0.827,9.353-2.346,9.949-7.422C64.672,79.623,63.586,74.284,59.046,70.543z M58.102,89.516   c-2.801,1.128-6.811-1.522-8.826-6.288c-2.848-6.74-0.62-9.945,2.181-11.077c2.802-1.128,6.584,1.49,8.521,6.293   S60.902,88.388,58.102,89.516z"></path><path fill-rule="evenodd" clip-rule="evenodd" d="M92.96,11.011c-0.897-3.074-2.656-3.812-4.804-3.482l-19.885,3.614   c-1.085,1.194-0.893,2.472,0.179,3.3h13.889L82.254,17.6l-13.592-0.042c-1.669,0.254-1.522,2.777-0.038,3.195l13.729,0.071   l-0.089,2.862l-13.423,0.136c-2.035,0.63-1.189,3.008,0.009,3.248l13.55,0.066l0.047,2.806l-13.69-0.004   c-1.969,0.554-1.396,3.553-0.061,3.473l13.671-0.033l-0.075,2.764l-13.507-0.009c-1.748,0.31-1.603,2.909-0.094,3.209l13.567,0.188   l-0.052,3.003l-13.05,0.015c-2.29,0.183-2.134,3.121-0.235,3.177l13.418,0.169l-0.226,2.951l-13.169,0.07   c-1.876,0.099-1.81,3.154-0.104,3.182l13.54,0.174l-0.08,3.107l-13.61,0.014c-1.701,0.315-1.42,3.172-0.033,3.257l13.709-0.071   l-0.065,2.915l-13.418-0.08c-1.701,0.475-1.508,3.036-0.127,3.257l13.427,0.217l-0.036,2.97L69.01,67.713   c-1.95,0.339-1.843,3.094-0.192,3.408l13.413,0.15l-0.024,2.814l-13.402,0.038c-1.613,0.663-1.622,3.017-0.033,3.341l13.451,0.118   l-0.071,2.966L68.836,80.37c-1.654,0.155-1.283,2.895-0.019,3.14l13.323,0.112l-0.127,3.253l-13.069-0.339   c-1.796,0.146-1.631,2.956,0.014,3.46l20.558,2.626c1.823-0.089,3.102-1.377,3.84-3.867L92.96,11.011z"></path></g></svg>