<svg xmlns="http://www.w3.org/2000/svg" xmlns:xlink="http://www.w3.org/1999/xlink" xmlns:sketch="http://www.bohemiancoding.com/sketch/ns" viewBox="0 0 100 100" version="1.1" x="0px" y="0px"><title>Tag-9</title><desc>Created with Sketch.</desc><g stroke="none" stroke-width="1" fill="none" fill-rule="evenodd" sketch:type="MSPage"><g sketch:type="MSLayerGroup" fill="#000000"><path d="M79.6483206,20.2905671 C89.7137697,13.6951087 96.5532795,7.19669819 94.9640667,4.90783942 C93.374854,2.61898066 84.6104878,6.34512275 74.5450387,12.9405812 C64.4795896,19.5360396 57.6400799,26.0344501 59.2292926,28.3233089 C60.8185054,30.6121676 69.5828715,26.8860255 79.6483206,20.2905671 L79.6483206,20.2905671 Z M78.7976121,19.0653367 C74.1996224,22.0782028 69.6693007,24.5759696 66.1069858,26.0904764 C62.9028486,27.452705 60.7340615,27.8476405 60.49052,27.4968805 C60.2469784,27.1461205 61.4363564,25.3405941 63.9367913,22.9648605 C66.71674,20.3235531 70.7977576,17.1786776 75.3957473,14.1658115 C79.993737,11.1529455 84.5240587,8.65517865 88.0863736,7.1406719 C91.2905107,5.77844329 93.4592978,5.38350776 93.7028394,5.73426776 C93.946381,6.08502775 92.757003,7.89055421 90.256568,10.2662878 C87.4766194,12.9075951 83.3956018,16.0524707 78.7976121,19.0653367 L78.7976121,19.0653367 Z" sketch:type="MSShapeGroup"></path><path d="M7.11778644,73.9268497 C5.31028232,72.6612217 4.87092703,70.1700672 6.13741268,68.3613382 L32.3870281,30.8730023 C33.6530867,29.0648831 36.4661524,27.3797164 38.6539449,27.1110713 L59.6163645,24.5370381 C61.8114284,24.2675002 63.995809,25.8030043 64.4916343,27.9507388 L69.2424036,48.5293407 C69.7398768,50.6842134 69.1172422,53.8962433 67.8507565,55.7049722 L41.6011411,93.1933082 C40.3350825,95.0014273 37.8412494,95.4396501 36.0359634,94.1755752 L7.11778644,73.9268497 Z M58.0084173,34.0886752 C59.8305908,34.0886752 61.3077543,32.6032314 61.3077543,30.7708436 C61.3077543,28.9384558 59.8305908,27.453012 58.0084173,27.453012 C56.1862438,27.453012 54.7090804,28.9384558 54.7090804,30.7708436 C54.7090804,32.6032314 56.1862438,34.0886752 58.0084173,34.0886752 Z" sketch:type="MSShapeGroup"></path></g></g></svg>