<svg xmlns="http://www.w3.org/2000/svg" xmlns:xlink="http://www.w3.org/1999/xlink" version="1.1" x="0px" y="0px" viewBox="0 0 100 100" enable-background="new 0 0 100 100" xml:space="preserve"><path fill="#000000" d="M93.6,48.1L55.9,76c-1.5,1.1-3.6,0.8-4.7-0.7L36.2,55c-1.1-1.5-0.8-3.6,0.7-4.7l37.7-27.9  c1.5-1.1,3.6-0.8,4.7,0.7l15,20.3C95.4,44.9,95.1,47,93.6,48.1z M38.1,51.9c-0.6,0.5-0.7,1.3-0.3,1.9l15,20.3  c0.5,0.6,1.3,0.7,1.9,0.3l37.7-27.9c0.6-0.5,0.7-1.3,0.3-1.9l-15-20.3c-0.5-0.6-1.3-0.7-1.9-0.3C75.8,24,38.1,51.9,38.1,51.9z"></path><rect x="57.3" y="43.7" transform="matrix(-0.8039 0.5948 -0.5948 -0.8039 139.5003 61.9798)" fill="#000000" width="4.5" height="20.5"></rect><rect x="62.7" y="40.7" transform="matrix(-0.8039 0.5948 -0.5948 -0.8039 145.1342 54.0094)" fill="#000000" width="2" height="20.5"></rect><rect x="72.4" y="32.5" transform="matrix(-0.8039 0.5948 -0.5948 -0.8039 160.1341 32.7886)" fill="#000000" width="4.5" height="20.5"></rect><rect x="69.5" y="35.6" transform="matrix(-0.8039 0.5948 -0.5948 -0.8039 154.5009 40.7581)" fill="#000000" width="2" height="20.5"></rect><rect x="66.3" y="38" transform="matrix(-0.8039 0.5948 -0.5948 -0.8039 150.0498 47.0552)" fill="#000000" width="2" height="20.5"></rect><rect x="81" y="27.1" transform="matrix(-0.8039 0.5948 -0.5948 -0.8039 170.1464 18.6239)" fill="#000000" width="2" height="20.5"></rect><rect x="77.8" y="29.5" transform="matrix(-0.8039 0.5948 -0.5948 -0.8039 165.6979 24.9174)" fill="#000000" width="2" height="20.5"></rect><circle fill="#000000" cx="47" cy="54.4" r="3.5"></circle><g><path fill="#000000" d="M47.7,53.9l-1.3,0.9c-2.7-3.7-11.4-2.1-19,3.5l-0.9-1.3C35,50.8,44.3,49.4,47.7,53.9z"></path></g><path fill="#000000" d="M27.9,56.7L17,56l0,0c-0.2,0-0.4,0-0.6,0.2l-5.7,5.1l-5.4,4.8c-0.3,0.3-0.4,0.8-0.1,1.1L14.7,78  c0.3,0.3,0.8,0.4,1.1,0.1l5.4-4.8l5.7-5.1c0.2-0.1,0.2-0.3,0.3-0.5l0,0L27.9,56.7z M16,75.8c-0.3,0.3-0.8,0.3-1.1-0.1l-7.4-8.4  c-0.3-0.3-0.3-0.8,0.1-1.1l9.4-8.4c0.2-0.1,0.4-0.2,0.6-0.2l7.9,0.5c0,0,0.1,0,0.1,0c0.2,0,0.4,0.1,0.5,0.3c0.1,0.2,0.2,0.3,0.2,0.5  c0,0,0,0.1,0,0.1l-0.5,7.9c0,0.2-0.1,0.4-0.3,0.5L16,75.8z"></path></svg>