<svg xmlns="http://www.w3.org/2000/svg" xmlns:xlink="http://www.w3.org/1999/xlink" version="1.1" x="0px" y="0px" viewBox="0 0 100 100" enable-background="new 0 0 100 100" xml:space="preserve"><path d="M90.45,35.08c-2.188,0-4.052,0.946-5.209,2.453H61.9l-7.626-23.472c1.4-1.109,2.235-2.779,2.235-4.762  c0-3.649-2.756-6.298-6.549-6.298c-3.686,0-6.467,2.671-6.467,6.217c-0.001,2.025,0.839,3.74,2.227,4.867l-7.62,23.448H14.806  c-1.162-1.519-3.04-2.455-5.289-2.455c-3.687,0-6.467,2.67-6.467,6.217c-0.002,3.647,2.719,6.296,6.465,6.296h0.018h0.018  c1.1-0.029,2.1-0.266,2.974-0.664l18.222,13.24l-7.906,24.338c-3.46,0.209-6.018,2.798-6.018,6.197  c-0.002,3.647,2.719,6.296,6.465,6.296h0.019h0.017c3.837-0.101,6.516-2.658,6.516-6.214c0-0.635-0.088-1.235-0.246-1.8  l20.408-14.828l20.601,14.967c-0.126,0.503-0.201,1.028-0.201,1.579c-0.001,3.647,2.72,6.296,6.466,6.296h0.018h0.018  c3.837-0.101,6.516-2.658,6.516-6.214c0-3.555-2.616-6.152-6.257-6.286l-7.905-24.331l18.201-13.225  c0.882,0.416,1.891,0.651,2.992,0.651h0.019h0.018C94.321,47.492,97,44.935,97,41.378C97,37.729,94.244,35.08,90.45,35.08z   M49.987,67.385h-0.033h-0.035c-7.228,0-12.477-5.109-12.473-12.146c0-6.841,5.365-11.993,12.477-11.993  c7.319,0,12.633,5.11,12.633,12.151C62.557,62.257,57.391,67.191,49.987,67.385z"></path></svg>