<?xml version="1.0" encoding="utf-8"?>
<!-- Generator: Adobe Illustrator 16.0.0, SVG Export Plug-In . SVG Version: 6.00 Build 0)  -->
<!DOCTYPE svg PUBLIC "-//W3C//DTD SVG 1.1//EN" "http://www.w3.org/Graphics/SVG/1.1/DTD/svg11.dtd">
<svg version="1.1" id="Layer_1" xmlns="http://www.w3.org/2000/svg" xmlns:xlink="http://www.w3.org/1999/xlink" x="0px" y="0px"
	 width="3024px" height="3024px" viewBox="0 0 3024 3024" enable-background="new 0 0 3024 3024" xml:space="preserve">
<path d="M555.66,2701.066h401.405V752.704H555.66V2701.066z M957.126,496.45c0-16.632-13.608-30.24-30.239-30.24H585.9
	c-16.633,0-30.24,13.608-30.24,30.24v226.648h401.466V496.45z M555.66,2957.049c0,16.602,13.607,30.24,30.24,30.24h340.986
	c16.632,0,30.239-13.639,30.239-30.24V2730.4H555.66V2957.049z M2398.909,2540.795l483.749-90.417L2597.313,923.438l-483.779,90.418
	L2398.909,2540.795z M2510.979,461.19c-3.084-16.36-18.961-27.216-35.32-24.162l-424.328,79.319
	c-16.39,3.055-27.246,18.931-24.222,35.26l80.982,433.128l483.81-90.417L2510.979,461.19z M2479.166,2970.324
	c3.055,16.359,18.9,27.216,35.26,24.222l424.418-79.41c16.33-3.054,27.217-18.96,24.192-35.26l-74.904-400.74l-483.87,90.478
	L2479.166,2970.324z M1471.689,609.487H1058.4c-16.633,0-30.24,13.608-30.24,30.24v52.526v804.626V2192.4v423.359v24.827v60.479
	v255.982c0,16.602,13.607,30.24,30.24,30.24h413.289c16.633,0,30.24-13.639,30.24-30.24v-316.462v-24.827V1496.88V692.254v-52.526
	C1501.93,623.096,1488.322,609.487,1471.689,609.487z M1437.67,2192.4h-345.25V1496.88h345.25V2192.4z M49.17,2522.167h419.519
	V624.305H49.17V2522.167z M468.72,228.826c0-16.632-13.607-30.24-30.239-30.24H79.38c-16.632,0-30.24,13.608-30.24,30.24V594.67
	h419.58V228.826z M49.14,2957.049c0,16.602,13.608,30.24,30.24,30.24H438.48c16.632,0,30.239-13.639,30.239-30.24V2551.5H49.14
	V2957.049z M1650.741,2527.066l418.944-21.652l-97.947-1895.353l-418.944,21.652L1650.741,2527.066z M1951.357,215.158
	c-0.848-16.602-15.15-29.514-31.752-28.667l-358.617,18.567c-16.602,0.847-29.514,15.15-28.637,31.752l18.869,365.359
	l419.006-21.651L1951.357,215.158z M1673.148,2961.403c0.848,16.571,15.181,29.483,31.783,28.638l358.615-18.537
	c16.603-0.877,29.484-15.181,28.607-31.753l-20.926-405.034l-419.006,21.652L1673.148,2961.403z"/>
</svg>
