<svg xmlns="http://www.w3.org/2000/svg" xmlns:xlink="http://www.w3.org/1999/xlink" version="1.1" x="0px" y="0px" viewBox="0 0 100 100" enable-background="new 0 0 100 100" xml:space="preserve"><path d="M32.238,36.514L32.238,36.514c-4.035-0.001-7.316-3.283-7.316-7.316c0-0.309-0.251-0.559-0.559-0.559  c-0.308,0-0.558,0.25-0.558,0.559c0,4.034-3.283,7.315-7.316,7.315v0.001c-0.309,0-0.559,0.251-0.559,0.559  c0,0.308,0.25,0.559,0.559,0.559c4.034,0,7.316,3.282,7.316,7.315c0,0.308,0.25,0.559,0.558,0.559c0.308,0,0.559-0.251,0.559-0.559  c0-4.034,3.282-7.315,7.316-7.315l0,0c0.308,0,0.559-0.251,0.559-0.559C32.797,36.765,32.545,36.514,32.238,36.514z"></path><path d="M41.231,15.958L41.231,15.958c-2.618,0-4.747-2.13-4.747-4.748c0-0.2-0.163-0.362-0.363-0.362  c-0.2,0-0.362,0.162-0.362,0.362c0,2.617-2.13,4.747-4.746,4.747l0,0c-0.199,0-0.362,0.163-0.362,0.363  c0,0.2,0.163,0.361,0.362,0.361c2.616,0,4.746,2.13,4.746,4.748c0,0.2,0.162,0.362,0.362,0.362c0.201,0,0.363-0.163,0.363-0.362  c0-2.618,2.129-4.748,4.747-4.748v0.001c0.199,0,0.362-0.163,0.362-0.362C41.593,16.12,41.43,15.958,41.231,15.958z"></path><path d="M52.905,29.292L52.905,29.292c-1.597,0-2.894-1.298-2.894-2.894c0-0.122-0.099-0.22-0.22-0.22  c-0.123,0-0.222,0.099-0.222,0.22c0,1.596-1.298,2.894-2.893,2.894l0,0c-0.122,0-0.221,0.099-0.221,0.22  c0,0.123,0.099,0.221,0.221,0.221c1.595,0,2.893,1.298,2.893,2.893c0,0.122,0.099,0.221,0.222,0.221c0.121,0,0.22-0.099,0.22-0.221  c0-1.595,1.297-2.893,2.894-2.893l0,0c0.12,0,0.22-0.099,0.22-0.221C53.125,29.391,53.025,29.292,52.905,29.292z"></path><path d="M89.573,1.297c0.664-0.665,1.741-0.665,2.406,0l1.465,1.202c0.665,0.665,0.665,1.742,0,2.406L63.478,49.203l-5.956-3.971  L89.573,1.297z"></path><path d="M62.575,58.239l3.092-4.396c0.067-0.093,0.094-0.209,0.07-0.322c-0.02-0.113-0.087-0.213-0.183-0.276L53.36,45.151  c-0.093-0.063-0.209-0.083-0.322-0.062c-0.112,0.023-0.209,0.09-0.271,0.187l-2.552,3.979c-0.056,0.087-0.078,0.192-0.063,0.294  l0.235,1.527c-1.691,0.764-10.92,4.612-24.875,4.612c-5.539,0-11.199-0.604-16.825-1.8c-0.159-0.031-0.323,0.027-0.424,0.155  c-0.101,0.129-0.118,0.302-0.046,0.448l4.821,9.784c0.054,0.113,0.155,0.192,0.273,0.225c0.142,0.038,3.543,0.912,8.905,0.912  c1.183,0,2.377-0.043,3.567-0.13c-1.912,0.874-5.179,2.041-9.262,2.21c-0.171,0.007-0.321,0.115-0.38,0.276  c-0.061,0.159-0.02,0.339,0.104,0.457l12.053,11.485c0.102,0.095,0.244,0.135,0.383,0.108c0.368-0.08,7.763-1.719,12.974-5.68  c-1.809,2.469-4.889,5.983-9.067,8.295c-0.14,0.076-0.225,0.228-0.219,0.389c0.007,0.16,0.103,0.303,0.25,0.369l14.94,6.807  c0.175,0.079,0.389,0.029,0.511-0.123c0.042-0.054,3.807-4.909,6.226-12.799c-0.063,4.008-0.583,10.821-3.286,13.058  c-0.134,0.11-0.188,0.291-0.135,0.456c0.052,0.166,0.199,0.282,0.371,0.295l8.651,0.71c0.01,0.002,0.022,0.002,0.033,0.002  c0.173,0,0.327-0.104,0.394-0.263c0.186-0.447,4.488-11.146,0.945-32.723l1.039-0.204C62.417,58.39,62.512,58.329,62.575,58.239z"></path><path d="M14.019,92.903c-0.124,1.758-1.648,3.081-3.404,2.954c-1.754-0.123-3.075-1.645-2.951-3.401  c0.124-1.753,1.647-3.077,3.401-2.953C12.82,89.628,14.144,91.151,14.019,92.903z"></path><circle cx="31.292" cy="93" r="3.185"></circle><path d="M20.896,96.584c-0.081,1.135-1.066,1.989-2.202,1.911c-1.135-0.082-1.991-1.067-1.911-2.202  c0.082-1.133,1.067-1.99,2.201-1.911C20.121,94.465,20.977,95.45,20.896,96.584z"></path><circle cx="44.191" cy="93.913" r="2.061"></circle><circle cx="22.6" cy="92.124" r="1.36"></circle><circle cx="38.576" cy="98.255" r="1.2"></circle></svg>