<svg xmlns="http://www.w3.org/2000/svg" xmlns:xlink="http://www.w3.org/1999/xlink" version="1.1" x="0px" y="0px" viewBox="0 0 48 48" enable-background="new 0 0 48 48" xml:space="preserve"><g><rect x="5.4" y="32.3" fill="#000000" width="36.5" height="3.9"></rect><path fill="#000000" d="M27.4,28.8h-7.6c-1.2,0-2.2,1-2.2,2.2v2.4h12V31C29.7,29.7,28.7,28.8,27.4,28.8z"></path><polygon fill="#000000" points="47.5,47.5 0.5,47.5 6.2,38.6 7.7,38.6 6.8,43.1 9.3,38.6 12.2,38.6 11.4,43.1 13.8,38.6 16.1,38.6    16.5,42.6 18.2,38.6 20.9,38.6 20.9,42.8 22.9,38.6 25.6,38.6 26.2,43.1 26.9,38.6 29.8,38.6 31,43.1 31.5,38.6 34.4,38.6 36,42.6    36,38.6 38.4,38.6 41.2,42.3 40.3,38.6 41.5,38.6  "></polygon><polygon fill="#000000" points="37.4,0.5 20.6,30.7 24.4,32.9 41.3,2.7  "></polygon></g></svg>