<?xml version="1.0" encoding="utf-8"?>
<!-- Generator: Adobe Illustrator 16.0.0, SVG Export Plug-In . SVG Version: 6.00 Build 0)  -->
<!DOCTYPE svg PUBLIC "-//W3C//DTD SVG 1.1//EN" "http://www.w3.org/Graphics/SVG/1.1/DTD/svg11.dtd">
<svg version="1.1" id="Layer_1" xmlns="http://www.w3.org/2000/svg" xmlns:xlink="http://www.w3.org/1999/xlink" x="0px" y="0px"
	 width="3024px" height="3024px" viewBox="0 0 3024 3024" enable-background="new 0 0 3024 3024" xml:space="preserve">
<path d="M1988.28,2479.68h-393.12c0,0-18.9-173.88-18.9-234.359c0-60.48,3.78-177.66,154.98-328.86
	c151.199-151.2,359.1-173.88,415.8-173.88s230.58-272.16,381.78-313.74c151.199-41.58,66.165,43.485,34.02,75.6
	c-32.145,32.115-185.22,260.82-185.22,260.82l45.36-7.56c0,0,215.459-238.141,234.359-328.86s-86.939-49.14-86.939-49.14
	s11.34-317.521,41.58-347.761c30.239-30.239,83.159-30.239,100.185,39.706c17.025,69.944,16.995,357.194,16.995,383.654
	s-153.105,421.485-211.68,480.061C2458.905,1993.935,1969.38,2460.78,1988.28,2479.68z M1056.253,2483.46h387.949
	c0,0,18.658-173.88,18.658-234.36c0-60.479-3.75-177.66-152.954-328.859c-149.234-151.2-354.383-173.88-410.357-173.88
	c-55.943,0-227.525-272.16-376.76-313.74s-65.288,43.485-33.566,75.6c31.722,32.146,182.801,260.82,182.801,260.82l-44.785-7.56
	c0,0-212.647-238.141-231.275-328.86s85.791-49.14,85.791-49.14s-11.189-317.521-41.036-347.761
	c-29.816-30.239-82.071-30.239-98.885,39.705c-16.753,69.915-16.753,357.195-16.753,383.655s151.079,421.485,208.898,480.06
	C591.797,1997.745,1074.881,2464.561,1056.253,2483.46z M1086.342,768.822c84.941,0,153.801,68.858,153.801,153.8
	c0,84.942-68.859,153.801-153.801,153.801s-153.801-68.858-153.801-153.801C932.541,837.681,1001.4,768.822,1086.342,768.822z
	 M1940.834,775.596c84.958,0,153.83,68.872,153.83,153.831c0,84.958-68.872,153.83-153.83,153.83
	c-84.959,0-153.832-68.872-153.832-153.83C1787.002,844.468,1855.875,775.596,1940.834,775.596z M1504.168,1164.875
	c60.675,0,109.861,49.187,109.861,109.862c0,60.675-49.187,109.861-109.861,109.861c-60.676,0-109.862-49.187-109.862-109.861
	C1394.306,1214.062,1443.492,1164.875,1504.168,1164.875z M1654.158,1661.416c0,42.003-34.02,76.054-76.054,76.054h-135.203
	c-42.003,0-76.054-34.051-76.054-76.054v-160.544c0-42.034,34.051-76.054,76.054-76.054h135.203
	c42.034,0,76.054,34.02,76.054,76.054V1661.416z M1300.108,1580.222c0,82.011-66.498,148.509-148.509,148.509h-123.772
	c-82.011,0-148.538-66.498-148.538-148.509V1271.41c0-82.011,66.497-148.538,148.538-148.538H1151.6
	c82.011,0,148.509,66.497,148.509,148.538V1580.222z M2152.725,1580.222c0,82.011-66.497,148.509-148.508,148.509h-123.772
	c-82.041,0-148.539-66.498-148.539-148.509V1271.41c0-82.011,66.498-148.538,148.539-148.538h123.772
	c82.011,0,148.508,66.497,148.508,148.538V1580.222z"/>
</svg>
