<svg xmlns="http://www.w3.org/2000/svg" xmlns:xlink="http://www.w3.org/1999/xlink" version="1.1" x="0px" y="0px" viewBox="0 0 72 72" enable-background="new 0 0 72 72" xml:space="preserve"><g><path fill="#000000" d="M66.3,0.9h-43c-2.9,0-5.2,2.3-5.2,5.2v5c0,0.4,0.3,0.7,0.7,0.7c0,0,1.4,0,2.3,0c0.4,0,0.7-0.3,0.7-0.7V6.8   c0-1.2,1-2.2,2.2-2.2h41.5c1.2,0,2.2,1,2.2,2.2v28.7c0,1.2-1,2.2-2.2,2.2H29.9c-0.4,0-0.7,0.3-0.7,0.7v2.3c0,0.4,0.3,0.7,0.7,0.7   h10.4c0.4,0,0.7,0.3,0.7,0.7v2c0,0.3-0.3,0.6-0.6,0.7c-3.9,0.5-6.6,1.8-6.6,3.2c0,1.9,4.9,3.5,11,3.5c6.1,0,11-1.6,11-3.5   c0-1.4-2.7-2.7-6.6-3.2c-0.3,0-0.6-0.3-0.6-0.7l0-2c0-0.4,0.3-0.7,0.7-0.7h17c2.9,0,5.2-2.3,5.2-5.2V6.1   C71.5,3.2,69.2,0.9,66.3,0.9z"></path><path fill="#000000" d="M22.8,15.8H2.9c-1.3,0-2.4,1.1-2.4,2.4v50.6c0,1.3,1.1,2.4,2.4,2.4h19.9c1.3,0,2.4-1.1,2.4-2.4V18.2   C25.1,16.9,24.1,15.8,22.8,15.8z M12.8,58.8c-2,0-3.6-1.6-3.6-3.6c0-2,1.6-3.6,3.6-3.6s3.6,1.6,3.6,3.6   C16.4,57.2,14.8,58.8,12.8,58.8z M22.5,34.9c0,0.5-0.4,0.8-0.8,0.8H4c-0.5,0-0.8-0.4-0.8-0.8v-4.7c0-0.5,0.4-0.8,0.8-0.8h17.7   c0.5,0,0.8,0.4,0.8,0.8V34.9z M22.5,25.4c0,0.5-0.4,0.8-0.8,0.8H4c-0.5,0-0.8-0.4-0.8-0.8v-4.7c0-0.5,0.4-0.8,0.8-0.8h17.7   c0.5,0,0.8,0.4,0.8,0.8V25.4z"></path></g></svg>