<?xml version="1.0" encoding="utf-8"?>
<!-- Generator: Adobe Illustrator 16.0.0, SVG Export Plug-In . SVG Version: 6.00 Build 0)  -->
<!DOCTYPE svg PUBLIC "-//W3C//DTD SVG 1.1//EN" "http://www.w3.org/Graphics/SVG/1.1/DTD/svg11.dtd">
<svg version="1.1" id="Layer_1" xmlns="http://www.w3.org/2000/svg" xmlns:xlink="http://www.w3.org/1999/xlink" x="0px" y="0px"
	 width="3024px" height="3024px" viewBox="0 0 3024 3024" enable-background="new 0 0 3024 3024" xml:space="preserve">
<g transform="translate(0,-952.36218)">
	<path fill="#010101" d="M1449.758,3733.222c0,0-10.582-14.625-1.982-31.137c7.668-14.719,5.713-70.932-4.104-117.967
		c-3.768-18.047-6.85-41.111-6.852-51.252c-0.006-27.978-16.453-56.205-49.896-85.625c-36.826-34.678-29.367-36.486-4.229-69.053
		c12.897-11.015,20.03-24.511,23.84-39.361c5.348-20.838,6.604-18.476-2.744-64.467c-10.517-51.771-19.783-103.492-32.863-154.5
		c-3.309-12.902-5.186-25.697-11.521-38.269c-21.821-43.269-23.515-57.935-18.076-156.656
		c3.996-72.534,7.582-100.539,17.836-139.327l16.185-49.211l-10.81-51.56c-14.354-78.174-14.389-163.346-14.809-230.351
		c-24.299-93.057,41.374-212.334-8.953-298.233c-12.746-21.756,0.303-13.147-64.91-39.127
		c-45.6-31.795-89.779-39.728-134.527-53.521c-42.397-11.771-48.601-12.416-67.074-6.982c-23.563,6.928-29.802,4.738-26.401-9.27
		c1.976-8.142-1.174-11.709-16.662-18.896c-18.94-8.789-19.265-8.777-39.83,1.17c-11.402,5.518-22.396,10.031-24.428,10.031
		s-26.226,2.502-31.616-6.797c-8.6-14.832,6.928-21.482,6.928-21.482l10.788-4.141c10.382-3.984,10.435-4.265,1.374-7.416
		c-5.177-1.802-22.38-9.396-38.228-16.875c-15.849-7.479-30.054-13.601-31.566-13.601s-22.237-11.52-46.053-25.604
		c-28.068-16.599-50.899-26.631-64.91-28.527c-40.456-5.473-90.955-21.646-188.126-60.248
		c-64.105-26.988-128.07-50.598-193.676-56.473c-44.417-1.156-122.702-17.455-181.032-37.23
		c-53.668-18.192-133.71-20.957-152.954-74.063c-6.673-18.414,7.686-43.104,24.346-53.49c30.402-18.957,72.248-3.365,107.571,2.842
		c74.07,13.017,148.07,52.188,213.994,71.271c74.687,28.99,166.175,37.271,213.465,45.869c42.341,7.758,80.958,14.104,85.818,14.104
		c11.287,0,75.606,18.979,124.44,36.717c20.795,7.556,71.002,29.888,111.571,49.625c52.843,25.713,84.165,37.959,110.439,43.179
		c60.472,14.475,69.575,34.209,139.593,3.854c5.377-3.75,19.363-6.938,31.083-7.088c14.558-0.18,28.761-4.557,44.839-13.807
		c12.941-7.447,40.336-22.312,60.873-33.029c20.539-10.721,44.936-24.264,54.217-30.098c25.995-16.345,71.299-33.843,147.08-56.808
		c48.611-5.545,65.605-38.008,96.832-59.42c8.139-5.582,16.494-14.342,23.531-17.955c11.816-6.069,43.383-29.147,79.328-58
		c8.121-6.52,19.272-11.852,24.781-11.852c16.884,0,47.52-11.312,47.52-17.548c0-3.239,3.148-5.891,6.996-5.891
		c10.074,0,21.242-30.117,21.242-57.289c0-25.551-3.172-29.721-55.558-73.016c-13.412-11.084-31.282-30.752-39.713-43.703
		c-9.308-14.299-21.336-26.08-30.623-29.994c-14.274-6.018-15.285-7.949-15.136-28.949c0.09-12.377,4.252-30.94,9.252-41.254
		c5.002-10.312,9.166-21.098,9.254-23.973c0.182-6.275,40.064-22.184,48.402-19.309c3.232,1.112,13.26-1.875,22.281-6.644
		c9.021-4.768,22.99-8.67,31.043-8.67c8.055,0,20.791-3.006,28.309-6.678c7.516-3.672,23.195-7.672,34.844-8.888
		c11.647-1.213,26.891-3.682,33.871-5.485c20.345-5.252,44.099,5.779,73.847,34.299c28.051,26.896,38.092,47.291,38.151,77.498
		c0.019,9.693,5.979,19.252,21.522,34.516c0,0,23.964,10.511,23.866,21.107c-0.048,5.287-12.102,10.316-12.102,10.316
		c-5.353,5.674-9.73,15.856-9.73,22.629c0,6.771-2.344,13.754-5.209,15.516c-3.723,2.289-54.756-3.812,0.504,6.724
		c3.756,2.311,4.415,7.327,1.922,14.647c-2.083,6.121-3.238,13.104-2.564,15.516c3.908,14.011-5.369,25.787-26.412,33.529
		c-29.4,10.82-34.133,14.824-43.809,37.082c-19.439,138.012,3.613,119.158,73.688,84.045c14.821-4.291,32.723-6.371,41.207-4.785
		c70.156-33.358,166.629-54.34,205.235-110.25c3.056-6.149,37.698-42.868,76.983-81.602c39.285-38.73,92.276-93.066,117.76-120.75
		c32.99-35.836,55.435-55.625,77.938-68.715c17.385-10.113,42.069-27.096,54.854-37.742s37.381-27.662,54.658-37.811
		c43.595-23.404,111.826-10.744,111.826-2.955c0,10.764-57.094,0.758-77.41,8.768c22.938-1.965,72.722,9.453,71.76,19.342
		c-0.984,10.127-22.429,3.029-30.572,2.174c-53.531-19.109-65.018,15.357-71.268,17.242c-4.031,1.213,42.988-6.725,42.988-6.725
		c10.922,6.723-3.281,17.779-28.986,22.562c-15.596,2.904-30.613,15.447-51.763,32.978c-16.087,13.332-37.461,28.414-47.499,33.514
		c-10.038,5.101-21.577,14.031-25.643,19.849c-104.588,149.604-186.789,251.487-212.84,263.801
		c-8.778,4.147-52.403,31.264-96.945,60.256c-47.703,31.051-113.62,68.584-160.4,91.334l-79.416,38.623l3.022,19.674
		c12.839,83.561,7.668,114.225-27.224,161.457c-10.955,14.826-28.722,41.979-39.481,60.338
		c-23.649,40.348-56.862,71.33-109.705,102.336c-49.538,29.066-121.158,77.441-154.134,104.103
		c-13.827,11.18-27.831,20.327-31.12,20.327c-3.29,0-13.976,6.326-23.748,14.062c-9.771,7.732-21.661,14.061-26.423,14.061
		s-11.639,4.746-15.282,10.548c-6.39,10.168-14.039,70.297-19.532,153.508c-7.543,105.022-35.637,194.074-39.947,295.707
		c0,39.687-2.145,51.082-19.356,102.961c0,0-16.479,38.057-19.358,58.34c-6.595,46.445,5.397,140.615,5.397,140.615
		c6.923,180.353,11.114,194.863,28.696,290.617c1.606,8.756,4.701,17.17,6.988,25.78c2.555,9.605,6.512,18.968,7.521,28.853
		c6.728,65.91-4.039,185.312-10.24,198.479c-2.431,5.156-5.295,30.466-6.367,56.246c-1.074,25.777-2.117,50.236-2.324,54.349
		c-0.211,4.108-6.53,12.936-12.131,21.09c0,0-7.217,11.904-11.766,17.135c-9.091,9.052-40.406,5.666-43.535,0.304v-0.025H1449.758z
		 M1596.83,1952.708c17.438-25.01,61.997-58.17,70.378-98.676c2.994-15.201,11.461-41.351,18.812-58.109
		c7.354-16.756,12.734-31.141,11.961-31.965c-3.41-3.633-148.613,72.451-173.978,91.16c-15.463,11.408-35.582,22.615-44.709,24.908
		s-45.149,11.024-80.05,19.405c-69.648,16.726-124.208,32.263-121.698,34.656c0.886,0.844,21.729,2.799,46.317,4.34
		c24.592,1.543,61.652,4.896,82.36,7.453c20.708,2.553,46.121,5.363,56.476,6.238c33.283,2.813,134.129,3.254,134.129,0.586v0.003
		H1596.83z"/>
</g>
<path fill="#010101" d="M2941.109,1393.004c-44.922-39.283-374.008,307.662-447.148,389.736
	c-64.941,72.875-395.002,455.123-428.105,568.633c7.119,4.354,14.183,9.262,21.123,14.795c3.957,3.124,7.658,6.423,11.233,9.789
	c113.933-55.329,470.925-443.598,523.741-508.255C2681.109,1795.292,2974.979,1422.608,2941.109,1393.004z"/>
<path fill="#010101" d="M2056.184,2393.878c-69.389-55.224-140.342-32.444-193.438,30.294
	c-52.558,62.129-40.474,164.115-45.711,198.457c-11.84,77.802-161.246,142.324-161.246,142.324s185.571,54.975,340.705-77.741
	C2099.889,2598.758,2146.027,2465.36,2056.184,2393.878z"/>
</svg>
