<svg xmlns="http://www.w3.org/2000/svg" xmlns:xlink="http://www.w3.org/1999/xlink" version="1.1" x="0px" y="0px" viewBox="0 0 100 100" enable-background="new 0 0 100 100" xml:space="preserve"><g><rect x="-192" width="185" height="99"></rect><rect y="-36" width="100" height="30"></rect><text transform="matrix(1 0 0 1 66 -19.5)" fill="#000000" font-family="'Helvetica'" font-size="2.4">http://thenounproject.com</text><text transform="matrix(1 0 0 1 7.166 -24.5)"><tspan x="0" y="0" fill="#000000" font-family="'Helvetica-Bold'" font-size="6.1578">The Noun Project</tspan><tspan x="1.12" y="4.8" fill="#000000" font-family="'Helvetica-Bold'" font-size="4">Icon Template</tspan></text><text transform="matrix(1 0 0 1 -178.5 10.5)" fill="#000000" font-family="'Helvetica-Bold'" font-size="6.1578">Reminders</text><line fill="#000000" stroke="#FFFFFF" stroke-miterlimit="10" x1="8" y1="-14.5" x2="18" y2="-14.5"></line><line fill="#000000" stroke="#FFFFFF" stroke-miterlimit="10" x1="-179" y1="16.5" x2="-162" y2="16.5"></line><g><g><g><rect x="-170.802" y="31.318" fill="#000000" width="8.721" height="8.642"></rect><path fill="#000000" d="M-164.455,42.312h4.747v-4.703h-4.747V42.312z M-159.266,42.749h-5.63V37.17h5.63V42.749      L-159.266,42.749z M-166.221,44.062h8.279v-8.203h-8.279V44.062L-166.221,44.062z M-157.5,44.5h-9.163v-9.079h9.163V44.5      L-157.5,44.5z"></path><polygon fill="#000000" points="-166.149,44.133 -166.292,43.991 -158.013,35.787 -157.871,35.929     "></polygon></g></g></g><rect x="-179" y="58" fill="none" width="35" height="32.5"></rect><text transform="matrix(1 0 0 1 -179 60.1299)"><tspan x="0" y="0" fill="#000000" font-family="'Helvetica-Bold'" font-size="3">Strokes</tspan><tspan x="0" y="5" fill="#000000" font-family="'Helvetica'" font-size="2.4">Try to keep strokes at 4px</tspan><tspan x="0" y="10" fill="#000000" font-family="'Helvetica'" font-size="2.4">Minimum stroke weight is 2px</tspan><tspan x="0" y="14.5" fill="#000000" font-family="'Helvetica'" font-size="2.4">For thicker strokes use even </tspan><tspan x="0" y="17.5" fill="#000000" font-family="'Helvetica'" font-size="2.4">numbers: 6px, 8px etc.</tspan><tspan x="0" y="22" fill="#000000" font-family="'Helvetica-Bold'" font-size="2.4">Remember to expand strokes </tspan><tspan x="0" y="25" fill="#000000" font-family="'Helvetica-Bold'" font-size="2.4">before saving as an SVG </tspan></text><rect x="-136.5" y="58" fill="none" width="35" height="32.5"></rect><text transform="matrix(1 0 0 1 -136.5 60.1299)"><tspan x="0" y="0" fill="#000000" font-family="'Helvetica-Bold'" font-size="3">Size</tspan><tspan x="0" y="5" fill="#000000" font-family="'Helvetica'" font-size="2.4">Cannot be wider or taller than </tspan><tspan x="0" y="8.5" fill="#000000" font-family="'Helvetica'" font-size="2.4">100px (artboard size)</tspan><tspan x="0" y="13.5" fill="#000000" font-family="'Helvetica'" font-size="2.4">Scale your icon to fill as much of </tspan><tspan x="0" y="16.5" fill="#000000" font-family="'Helvetica'" font-size="2.4">the artboard as possible</tspan></text><rect x="-94" y="58" fill="none" width="35" height="32.5"></rect><text transform="matrix(1 0 0 1 -94 60.1299)"><tspan x="0" y="0" fill="#000000" font-family="'Helvetica-Bold'" font-size="3">Ungroup</tspan><tspan x="0" y="5" fill="#000000" font-family="'Helvetica'" font-size="2.4">If your design has more than one </tspan><tspan x="0" y="8" fill="#000000" font-family="'Helvetica'" font-size="2.4">shape, make sure to ungroup</tspan></text><rect x="-50" y="58" fill="none" width="35" height="32.5"></rect><text transform="matrix(1 0 0 1 -50 60.1299)"><tspan x="0" y="0" fill="#000000" font-family="'Helvetica-Bold'" font-size="3">Save as</tspan><tspan x="0" y="5" fill="#000000" font-family="'Helvetica'" font-size="2.4">Save as .SVG and make sure “Use </tspan><tspan x="0" y="8" fill="#000000" font-family="'Helvetica'" font-size="2.4">Artboards” is checked</tspan></text><text transform="matrix(1.0074 0 0 1 -125.542 30.5933)" fill="#000000" font-family="'Helvetica'" font-size="2.5731">100px</text><text transform="matrix(1.0074 0 0 1 -41 39)" fill="#000000" font-family="'Helvetica-Bold'" font-size="5.1462">.SVG</text><rect x="-126.514" y="34.815" fill="#000000" width="10.261" height="10.185"></rect><rect x="-126.477" y="31.766" fill="#000000" width="0.522" height="2.337"></rect><rect x="-116.813" y="31.766" fill="#000000" width="0.523" height="2.337"></rect><rect x="-127" y="32.337" fill="#000000" width="11.233" height="0.572"></rect><g><rect x="-83.805" y="33.844" fill="#000000" width="10.305" height="10.156"></rect><rect x="-76.809" y="28.707" fill="#000000" width="3.308" height="3.261"></rect></g><rect x="-178.5" y="22.5" fill="#000000" stroke="#FFFFFF" stroke-miterlimit="10" width="30" height="30"></rect><rect x="-136.5" y="22.5" fill="#000000" stroke="#FFFFFF" stroke-miterlimit="10" width="30" height="30"></rect><rect x="-93.5" y="22.5" fill="#000000" stroke="#FFFFFF" stroke-miterlimit="10" width="30" height="30"></rect><rect x="-49.5" y="22.5" fill="#000000" stroke="#FFFFFF" stroke-miterlimit="10" width="30" height="30"></rect></g><g><g><path fill-rule="evenodd" clip-rule="evenodd" d="M23.557,59.391l-0.288,1.224c-0.149,0.634,0.248,1.275,0.881,1.424l3.207,0.755    c0.634,0.149,1.275-0.247,1.424-0.881l0.289-1.228c4.37-0.444,7.779-4.135,7.779-8.622c0-4.786-3.88-8.666-8.667-8.666    c-4.786,0-8.666,3.88-8.666,8.666C19.518,55.147,21.13,57.855,23.557,59.391z M28.184,44.665c4.086,0,7.397,3.313,7.397,7.397    s-3.312,7.397-7.397,7.397c-4.085,0-7.397-3.313-7.397-7.397S24.099,44.665,28.184,44.665z"></path><path fill-rule="evenodd" clip-rule="evenodd" d="M76.697,38.705c-0.471,1.553-0.986,3.091-1.346,3.871    c-4.982,10.833-14.736,11.075-14.736,11.075s-9.755-0.242-14.737-11.074c-0.356-0.773-0.866-2.292-1.333-3.83    c-0.48,0.442-1.278,0.903-2.212,1.134c-0.845,0.208-1.539,0.286-2.049,0.246c2.578,7.233,6.979,15.678,18.052,17.872    c0.184,0.8,0.506,1.746,0.906,2.722l2.523,9.861c2.44,9.54-8.057,17.904-17.904,17.904S23.89,80.208,25.957,70.582l1.438-6.697    c-1.397-0.022-2.724-0.334-3.923-0.878l-1.629,7.605c-2.538,11.842,9.91,22.019,22.019,22.019    c12.109,0,25.014-10.285,22.019-22.019l-1.824-7.145c-0.199-1.374-0.56-3.169-1.124-5.475l0.034-0.007    C73.941,55.779,78.34,47.408,80.915,40.21c-0.491,0.014-1.128-0.067-1.887-0.254C78.014,39.704,77.156,39.182,76.697,38.705z"></path><path fill-rule="evenodd" clip-rule="evenodd" d="M79.619,30.588c-0.143,0.597-1.457,5.731-1.823,6.995    c-0.021,0.07-0.071,0.141-0.142,0.211c0.394,0.467,1.123,0.682,1.663,0.843c0.408,0.122,0.983,0.157,1.448,0.134    c-0.041-0.104-0.058-0.208-0.025-0.313C81.872,34.81,83,29.353,83,27.742c0-6.397-5.383-9.65-6.576-10.293    c0.083,0.308,0.07,0.643-0.058,0.958l-0.423,1.044c-0.173,0.427-0.522,0.731-0.931,0.865    C80.088,23.696,80.475,26.998,79.619,30.588z"></path><path fill-rule="evenodd" clip-rule="evenodd" d="M40.488,38.689c0.482,0.034,1.115,0.004,1.556-0.128    c0.497-0.148,1.155-0.342,1.563-0.736c-0.086-0.08-0.151-0.161-0.174-0.241c-0.367-1.265-1.681-6.4-1.823-6.995    c-0.855-3.587-0.47-6.885,4.589-10.262c-0.368-0.147-0.677-0.438-0.837-0.831l-0.423-1.043c-0.143-0.353-0.142-0.729-0.024-1.064    c-0.913,0.473-6.688,3.727-6.688,10.351c0,1.611,1.127,7.068,2.26,10.717C40.512,38.534,40.509,38.611,40.488,38.689z"></path><circle fill-rule="evenodd" clip-rule="evenodd" cx="28.184" cy="52.063" r="4.864"></circle><path fill-rule="evenodd" clip-rule="evenodd" d="M46.614,18.776c0.358,0.885,1.377,1.316,2.262,0.957l1.893-0.769    c0.893,0.428,1.955,0.488,2.945,0.087c1.873-0.758,2.775-2.893,2.016-4.766c-0.759-1.873-2.894-2.775-4.766-2.016    c-1.066,0.433-1.818,1.309-2.127,2.33l-1.754,0.711c-0.884,0.36-1.315,1.377-0.956,2.262L46.614,18.776z M53.289,12.95    c0.445-0.18,1.382,0.401,1.793,1.417c0.412,1.017,0.146,2.084-0.301,2.266c-0.444,0.18-1.138-0.498-1.553-1.515    C52.817,14.102,52.844,13.131,53.289,12.95z"></path><path fill-rule="evenodd" clip-rule="evenodd" d="M67.285,19.051c0.99,0.401,2.053,0.341,2.945-0.087l1.893,0.769    c0.886,0.359,1.904-0.072,2.263-0.957l0.487-1.203c0.359-0.885-0.072-1.902-0.956-2.262l-1.755-0.711    c-0.309-1.021-1.061-1.897-2.127-2.33c-1.872-0.759-4.007,0.143-4.766,2.016C64.51,16.158,65.412,18.293,67.285,19.051z     M65.918,14.367c0.411-1.016,1.348-1.597,1.793-1.417c0.445,0.181,0.472,1.151,0.061,2.168c-0.415,1.017-1.108,1.694-1.553,1.515    C65.772,16.451,65.506,15.384,65.918,14.367z"></path></g></g></svg>