<svg xmlns="http://www.w3.org/2000/svg" xmlns:xlink="http://www.w3.org/1999/xlink" version="1.1" x="0px" y="0px" viewBox="0 0 100 100" enable-background="new 0 0 100 100" xml:space="preserve"><text transform="matrix(1 0 0 1 613.5361 406.8867)" font-family="'MyriadPro-Regular'" font-size="35.4619">75 px</text><path fill="#000000" stroke="#010101" stroke-miterlimit="10" d="M69.807,52.76"></path><path fill="#000000" d="M80.721,55.77L77.42,22.755c0,0-1.136-1.166-3.353-1.166c-2.219,0-3.251,1.166-3.251,1.166L67.516,55.77  H80.721z"></path><path fill="#000000" d="M74.943,19.701h-1.65c0-1.104-0.429-2.14-1.208-2.919c-0.777-0.778-1.812-1.208-2.915-1.208h-0.003  c-3.187,0-5.778-2.591-5.778-5.777h1.651c0,2.276,1.851,4.126,4.127,4.126h0.003c1.545,0,2.992,0.6,4.081,1.691  C74.344,16.707,74.943,18.157,74.943,19.701z"></path><path fill="#000000" d="M63.845,55.77l-2.309-23.111c0,0-0.793-0.816-2.348-0.816c-1.554,0-2.277,0.816-2.277,0.816L54.604,55.77  H63.845z"></path><path fill="#000000" d="M60.049,30.521h-1.649c0-0.706-0.276-1.371-0.775-1.868c-0.496-0.498-1.159-0.772-1.863-0.772h-0.003  c-2.367,0-4.294-1.926-4.294-4.292h1.65c0,1.457,1.186,2.642,2.644,2.642h0.003c1.145,0,2.223,0.447,3.031,1.256  C59.604,28.296,60.049,29.375,60.049,30.521z"></path><path fill="#000000" d="M83.013,57.734L51.65,57.713V52.76c0-0.549-0.271-1.06-0.726-1.367c-0.454-0.309-1.031-0.372-1.537-0.164  l-14.244,5.697V52.76c0-0.549-0.271-1.06-0.725-1.367c-0.455-0.309-1.032-0.372-1.538-0.164L16.374,57.83  c-0.628,0.252-1.038,0.857-1.038,1.533v28.783c0,0.912,0.739,1.65,1.65,1.65h66.026c0.913,0,1.651-0.738,1.651-1.65V59.385  C84.664,58.473,83.926,57.734,83.013,57.734z M36.794,72.348c0,0.914-0.741,1.652-1.65,1.652H25.24c-0.911,0-1.65-0.738-1.65-1.652  v-4.951c0-0.914,0.739-1.648,1.65-1.648h9.904c0.909,0,1.65,0.734,1.65,1.648V72.348z M56.603,72.348  c0,0.914-0.741,1.652-1.65,1.652h-9.904c-0.912,0-1.651-0.738-1.651-1.652v-4.951c0-0.914,0.739-1.648,1.651-1.648h9.904  c0.909,0,1.65,0.734,1.65,1.648V72.348z M76.41,72.348c0,0.914-0.741,1.652-1.65,1.652h-9.903c-0.912,0-1.65-0.738-1.65-1.652  v-4.951c0-0.914,0.738-1.648,1.65-1.648h9.903c0.909,0,1.65,0.734,1.65,1.648V72.348z"></path></svg>