<svg xmlns="http://www.w3.org/2000/svg" xmlns:xlink="http://www.w3.org/1999/xlink" version="1.1" x="0px" y="0px" viewBox="0 0 100 100" enable-background="new 0 0 100 100" xml:space="preserve"><g><path d="M20.747,97.062l-5.099-58.798c0-0.004,0.002-0.008,0.002-0.011c0-0.376-1.414-0.681-3.158-0.681   c-1.742,0-3.157,0.305-3.157,0.681c0,0.003,0.004,0.007,0.004,0.011l-5.1,58.798H4.234c0,1.622,3.698,2.938,8.258,2.938   c4.562,0,8.261-1.316,8.261-2.938H20.747z"></path></g><g><rect x="49.44" y="69.937" width="6.822" height="5.41"></rect><rect x="60.562" y="69.937" width="6.824" height="5.41"></rect><rect x="71.687" y="69.937" width="6.821" height="5.41"></rect><rect x="71.687" y="78.026" width="6.821" height="5.408"></rect><rect x="60.562" y="78.026" width="6.824" height="5.408"></rect><rect x="49.44" y="78.026" width="6.822" height="5.408"></rect></g><path d="M20.285,31.201c-0.694,0-1.364-0.384-1.697-1.047c-0.47-0.937-0.091-2.076,0.845-2.546c0.795-0.398,1.265-0.976,1.479-1.815  l0.496-1.95l1.917,0.609c1.224,0.39,2.525,0.586,3.87,0.586c3.219,0,6.183-1.135,7.928-3.038l1.082-1.179l1.344,0.866  c3.638,2.344,8.806,3.689,14.178,3.689c10.296,0,18.995-4.942,18.995-10.792c0-0.668-0.113-1.34-0.34-1.996  c-0.34-0.991,0.188-2.07,1.18-2.41c0.991-0.341,2.068,0.188,2.409,1.179c0.361,1.053,0.545,2.14,0.545,3.228  c0,8.179-10.011,14.585-22.789,14.585c-5.576,0-10.82-1.245-14.949-3.527c-2.459,2.017-5.927,3.189-9.582,3.189  c-1.135,0-2.251-0.111-3.334-0.329c-0.629,1.058-1.549,1.905-2.725,2.495C20.862,31.136,20.571,31.201,20.285,31.201z"></path><path d="M12.243,28.825c-0.729,0-1.424-0.422-1.737-1.132c-0.344-0.78-0.518-1.603-0.518-2.448c0-2.557,1.638-4.836,4.09-5.937  c-0.02-0.222-0.029-0.442-0.029-0.662c0-5.617,5.898-10.187,13.146-10.187c1.208,0,2.396,0.125,3.546,0.373  C34.248,3.494,42.413,0,51.726,0c1.813,0,3.633,0.137,5.405,0.407c1.036,0.158,1.747,1.125,1.589,2.161  c-0.156,1.036-1.13,1.75-2.16,1.589c-1.584-0.242-3.211-0.364-4.834-0.364c-8.532,0-16.078,3.316-18.35,8.065l-0.714,1.492  l-1.575-0.504c-1.232-0.394-2.542-0.594-3.893-0.594c-5.07,0-9.353,2.928-9.353,6.393c0,0.442,0.076,0.888,0.232,1.363l0.687,2.082  l-2.158,0.381c-1.635,0.289-2.822,1.455-2.822,2.773c0,0.315,0.066,0.624,0.196,0.917c0.422,0.959-0.012,2.079-0.97,2.501  C12.758,28.772,12.498,28.825,12.243,28.825z"></path><path fill="none" stroke="#000000" stroke-width="3" stroke-linecap="round" stroke-miterlimit="10" d="M14.853,31.196"></path><path d="M94.066,50.89c-1.008-0.898-2.299-1.32-3.674-1.167L79,51.027V40H69v12.13l-3,0.368V44H56v9.6l-30.548,3.473  c-1.388,0.158-2.407,1.412-2.249,2.8s1.288,2.391,2.667,2.227L90,54.783V90H28.274c-1.396,0-2.529,1.604-2.529,3  c0,1.397,1.132,3,2.529,3h61.968C93.031,96,96,92.579,96,89.79V54.479C96,53.096,95.072,51.788,94.066,50.89z"></path></svg>