<svg xmlns="http://www.w3.org/2000/svg" xmlns:xlink="http://www.w3.org/1999/xlink" version="1.1" x="0px" y="0px" viewBox="0 0 48 48" enable-background="new 0 0 48 48" xml:space="preserve"><g><path d="M28.691,32.918c-4.374-5.162-6.56-10.866-6.191-15.144c-1.252,1.314-1.616,3.57-0.996,6.438   c0.719,3.32,2.642,6.947,5.411,10.214c5.292,6.236,12.327,9.357,15.703,7.072C38.206,41.15,32.949,37.934,28.691,32.918z"></path><path d="M42.294,21.379c-4.035-4.756-9.137-7.828-12.999-7.828c-1.247,0-2.269,0.331-3.039,0.983   c-3.223,2.735-1.328,10.493,4.138,16.94c4.034,4.752,9.139,7.824,13.001,7.824c1.182,0,2.153-0.307,2.907-0.893l0.243-0.209   C49.597,35.369,47.69,27.738,42.294,21.379z M40.623,30.697l-1.187-1.02c-0.598,0.672-1.414,1.197-2.062,1.357l-0.548-0.959   c0.647-0.182,1.394-0.604,1.96-1.262c0.715-0.836,0.717-1.814,0.047-2.387c-0.649-0.557-1.439-0.439-2.541,0.129   c-1.499,0.795-2.675,1.074-3.699,0.195c-0.977-0.838-1.125-2.166-0.373-3.399l-1.188-1.021l0.626-0.727l1.142,0.976   c0.628-0.685,1.23-1.007,1.721-1.177l0.525,0.961c-0.353,0.127-1.026,0.388-1.671,1.14c-0.776,0.906-0.528,1.711-0.058,2.114   c0.613,0.525,1.29,0.354,2.594-0.309c1.532-0.787,2.67-0.876,3.716,0.023c0.931,0.795,1.246,2.188,0.407,3.57l1.225,1.051   L40.623,30.697z"></path><path d="M24.767,36.662c-2.693,1.014-5.89,1.613-9.382,1.613c-6.319,0-11.737-1.91-14.782-4.828C0.218,34.174,0,34.938,0,35.73   c0,4.588,6.902,8.322,15.385,8.322c5.445,0,10.228-1.543,12.963-3.857C27.109,39.164,25.907,37.98,24.767,36.662z"></path><path d="M15.385,36.221c2.942,0,5.687-0.457,8.026-1.236c-1.21-1.607-2.223-3.287-3.019-4.975   c-1.582,0.275-3.255,0.436-5.008,0.436c-6.319,0-11.737-1.912-14.782-4.83C0.218,26.342,0,27.105,0,27.898   C0,32.486,6.902,36.221,15.385,36.221z"></path><path d="M15.385,28.389c1.453,0,2.852-0.117,4.186-0.32c-0.329-0.893-0.594-1.781-0.783-2.654   c-0.225-1.039-0.338-2.031-0.354-2.973c-0.991,0.101-2.001,0.172-3.048,0.172c-6.319,0-11.737-1.911-14.782-4.829   C0.218,18.51,0,19.274,0,20.067C0,24.656,6.902,28.389,15.385,28.389z"></path><path d="M15.385,20.592c1.098,0,2.167-0.065,3.2-0.184c0.332-2.056,1.228-3.78,2.694-5.022l2.901-2.444   c0.088-0.088,0.164-0.158,0.242-0.225c1.452-1.232,3.258-1.855,5.371-1.855c0.247,0,0.496,0.014,0.747,0.03   c-1.22-3.935-7.543-6.944-15.156-6.944C6.902,3.948,0,7.681,0,12.27S6.902,20.592,15.385,20.592z M14.765,12.184   c-1.431-0.563-2.314-1.208-2.314-2.43c0-1.164,0.827-2.049,2.119-2.26V6.077h0.869v1.362c0.845,0.028,1.419,0.253,1.827,0.491   l-0.354,0.926c-0.294-0.168-0.868-0.478-1.766-0.478c-1.082,0-1.49,0.646-1.49,1.208c0,0.73,0.521,1.096,1.742,1.601   c1.445,0.589,2.175,1.318,2.175,2.567c0,1.109-0.771,2.148-2.218,2.387v1.461h-0.885v-1.418c-0.814-0.014-1.655-0.268-2.147-0.617   l0.336-0.941c0.507,0.338,1.235,0.604,2.023,0.604c0.996,0,1.669-0.574,1.669-1.375C16.352,13.083,15.806,12.604,14.765,12.184z"></path></g></svg>