<?xml version="1.0" encoding="utf-8"?>
<!-- Generator: Adobe Illustrator 16.0.0, SVG Export Plug-In . SVG Version: 6.00 Build 0)  -->
<!DOCTYPE svg PUBLIC "-//W3C//DTD SVG 1.1//EN" "http://www.w3.org/Graphics/SVG/1.1/DTD/svg11.dtd">
<svg version="1.1" id="Layer_1" xmlns="http://www.w3.org/2000/svg" xmlns:xlink="http://www.w3.org/1999/xlink" x="0px" y="0px"
	 width="3024px" height="3024px" viewBox="0 0 3024 3024" enable-background="new 0 0 3024 3024" xml:space="preserve">
<g>
	<path fill="#010101" d="M1174.516,2760.636c-325.262,0-339.596-174.575-339.596-174.575v-120.053c0,0,0-1397.089,0-1407.249
		c0-10.131,1.846-43.757,32.901-82.495c31.087-38.707,102.604-59.663,127.341-67.919c24.736-8.226,21.168-33.777,21.168-33.777
		s0-77.264,0-86.788l9.949-3.538h141.281 M1167.561,784.24h148.236l2.963,3.538c0,9.524,0,86.788,0,86.788
		s-0.09,25.553,24.646,33.777c24.735,8.256,94.529,29.212,125.586,67.919c31.117,38.738,31.209,72.364,31.209,82.495
		c0,10.16,0,1407.249,0,1407.249v120.054c0,0-14.364,174.574-339.596,174.574"/>
	<path fill="#010101" d="M1379.24,1963.6c0,116.908-94.771,211.682-211.68,211.682l0,0c-116.908,0-211.682-94.772-211.682-211.682
		V1540.24c0-116.908,94.772-211.682,211.682-211.682l0,0c116.906,0,211.68,94.772,211.68,211.682V1963.6z"/>
</g>
<g>
	<path fill="#010101" d="M1159.152,784.24H1046.6v-76.779l0,0V754h-60.479v-47.567l-190.573,6.108l-4.385-113.611l194.958-6.17
		v-20.199h29.665h5.172h25.644v-29.604l-24.887-0.635h-9.437c0,0-8.86-37.681-7.017-48.656c1.846-10.978,17.39-19.656,24.707-24.192
		c7.317-4.597,134.416-86.638,184.735-104.933s144.517-41.459,154.587-42.396c10.04-0.907,73.182-34.414,91.445-44.514
		c0,0,16.451-11.763,73.15,7.469c23.799,8.255,21.984,22.921,13.759,34.837c-8.256,11.884-5.534,8.255-24.706,17.418
		c-19.172,9.161-28.365,12.791-59.452,14.636c-22.86,10.04-189.302,74.995-189.302,74.995l-21.954,62.174l171.944,50.318
		c0,0,114.307,23.77,193.897,88.725c0,0,11.915,23.77-16.45,18.266c0,0-97.04-43.002-143.67-42.063
		c-46.691,0.907-139.195-8.226-139.195-8.226v37.68l-28.273,37.527l-3.508,112.855h-127.824V784.24z"/>
</g>
<g>
	<circle fill="#010101" cx="1166.139" cy="652.515" r="92.081"/>
	<path fill="#010101" d="M1113.611,643.08l-19.746,8.406c0,0,30.148,89.39,129.881,53.856l-4.959-23.225
		C1218.787,682.119,1145.213,710.727,1113.611,643.08z"/>
	<path fill="#010101" d="M1206.751,618.344c-26.551,6.38-38.798,56.217-49.108,51.045c-10.283-5.201,22.527-44.665,11.822-69.824
		c-4.475-10.554,17.631-14.183,27.912-9.012C1207.719,595.754,1217.939,615.683,1206.751,618.344z"/>
</g>
<path fill="#010101" d="M2186.354,1567.528c-16.301,0-30.186,7.048-38.806,18.273h-173.875l-56.81-174.853
	c10.429-8.262,16.648-20.702,16.648-35.475c0-27.183-20.531-46.916-48.786-46.916c-27.459,0-48.176,19.897-48.176,46.312
	c-0.007,15.085,6.25,27.859,16.59,36.257l-56.765,174.674H1622.85c-8.656-11.315-22.646-18.289-39.4-18.289
	c-27.465,0-48.174,19.891-48.174,46.312c-0.017,27.168,20.254,46.901,48.16,46.901h0.133h0.135
	c8.194-0.217,15.645-1.98,22.154-4.946l135.743,98.631l-58.896,181.303c-25.774,1.558-44.83,20.844-44.83,46.164
	c-0.016,27.168,20.254,46.901,48.16,46.901h0.142h0.127c28.583-0.752,48.54-19.801,48.54-46.29c0-4.73-0.654-9.2-1.833-13.409
	l152.026-110.46l153.465,111.495c-0.938,3.746-1.496,7.657-1.496,11.763c-0.008,27.168,20.263,46.901,48.168,46.901h0.133h0.135
	c28.584-0.752,48.541-19.801,48.541-46.291c0-26.482-19.487-45.828-46.611-46.826l-58.887-181.251l135.586-98.52
	c6.569,3.099,14.086,4.849,22.289,4.849h0.141h0.137c28.553-0.752,48.51-19.8,48.51-46.297
	C2235.146,1587.262,2214.615,1567.528,2186.354,1567.528z M1884.928,1808.182h-0.246h-0.261c-53.845,0-92.946-38.059-92.916-90.479
	c0-50.961,39.966-89.341,92.946-89.341c54.521,0,94.106,38.065,94.106,90.518C1978.566,1769.98,1940.083,1806.736,1884.928,1808.182
	z"/>
</svg>
