<svg xmlns="http://www.w3.org/2000/svg" xmlns:xlink="http://www.w3.org/1999/xlink" version="1.1" x="0px" y="0px" viewBox="0 0 100 100" enable-background="new 0 0 100 100" xml:space="preserve"><path d="M95.063,41.349c-0.213-0.972-0.787-1.708-1.697-2.182c-0.313-0.17-7.768-4.013-17.621,11.55  c-2.044,3.227-3.932,4.768-5.463,4.49c-2.602-0.494-4.22-6.044-4.611-8.014V11.46c0-3.214-2.613-5.829-5.829-5.829  c-3.213,0-5.828,2.615-5.828,5.829v29.822c0,0.666-0.719,1.314-1.498,1.397c-0.738-0.045-1.332-0.646-1.332-1.397h-0.021  L47.075,5.934c-0.37-3.192-3.274-5.48-6.459-5.121l0.077,0.671l-0.078-0.671c-1.548,0.18-2.932,0.95-3.899,2.168  c-0.967,1.22-1.4,2.744-1.221,4.292l4.1,35.327c0.104,0.756-0.413,1.461-1.167,1.587c-0.734,0.051-1.401-0.446-1.537-1.283  l-9.266-28.779l-0.02,0.007c-0.375-1.172-1.17-2.137-2.256-2.715c-1.104-0.587-2.372-0.712-3.573-0.345  c-1.198,0.366-2.183,1.176-2.771,2.279c-0.588,1.105-0.711,2.374-0.361,3.512l5.978,28.806l0.148,1.204  c0.2,0.752-0.248,1.527-0.999,1.73l-0.006-0.022c-0.754,0.206-1.532-0.25-1.734-1.005l-8.66-14.639l-0.013,0.008  c-1.013-1.705-3.214-2.283-4.932-1.286l-0.012-0.018c-1.702,0.995-2.292,3.174-1.34,4.889l6.062,19.16  c0.285,1.771,7.252,43.365,32.868,43.359c0.001,0,0.008,0,0.009,0c0.045,0.008,1.08,0.176,2.768,0.174  c5.818,0,19.39-1.98,26.789-19.295c0.113-0.229,11.362-23.029,16.653-30.97C92.367,48.773,95.729,44.393,95.063,41.349z   M62.321,72.014c-2.451,4.414-15.081,16.385-16.166,17.412l-0.082-0.08v-0.004C44.57,87.916,32.397,76.34,29.997,72.014  c0,0-6.434-7.848,0-13.684c0,0,9.282-7.859,16.163,2.846c6.875-10.705,16.162-2.846,16.162-2.846  C68.755,64.166,62.321,72.014,62.321,72.014z"></path></svg>