<svg xmlns="http://www.w3.org/2000/svg" xmlns:xlink="http://www.w3.org/1999/xlink" version="1.1" x="0px" y="0px" viewBox="0 0 100 100" enable-background="new 0 0 100 100" xml:space="preserve"><g><path d="M68.2,62.9H51.5v3.4h-3v-3.4H31.8v3.4h-3v-4.9c0-0.8,0.7-1.5,1.5-1.5h18.2h3h18.2c0.8,0,1.5,0.7,1.5,1.5v4.9h-3V62.9z    M34.4,56.6H50h0h15.6c-0.1-6.5,0.2-9.9-4-11.5c-3.8-1.5-6.1-2.9-6.1-2.9l-2.9,9.3l-0.4,1.3L50.8,49c3-4.2-0.2-4.4-0.8-4.4v0   c0,0,0,0,0,0s0,0,0,0s0,0,0,0s0,0,0,0v0c-0.6,0-3.8,0.2-0.8,4.4l-1.3,3.7l-0.4-1.3l-2.9-9.3c0,0-2.3,1.5-6.1,2.9   C34.2,46.6,34.5,50.1,34.4,56.6z M52.4,33.7c1.3-1.3,1.3-3.4,0-4.7c-1.3-1.3-3.4-1.3-4.7,0c-1.3,1.3-1.3,3.4,0,4.7   C49,35,51.1,35,52.4,33.7z M39.5,29.6l1.7,0c0.2-1.1,0.7-2.3,1.3-3.3l-1.2-1.2c-0.3-0.3-0.3-0.8,0-1.1l1.4-1.4   c0.3-0.3,0.8-0.3,1.1,0l1.2,1.2c1-0.7,2.1-1.1,3.3-1.4l0-1.7c0-0.4,0.3-0.7,0.7-0.7l2,0c0.4,0,0.7,0.3,0.7,0.7l0,1.7   c1.1,0.2,2.3,0.7,3.3,1.3l1.2-1.2c0.3-0.3,0.8-0.3,1.1,0l1.4,1.4c0.3,0.3,0.3,0.8,0,1.1l-1.2,1.2c0.7,1,1.1,2.1,1.4,3.3l1.7,0   c0.4,0,0.7,0.3,0.7,0.7l0,2c0,0.4-0.3,0.7-0.7,0.7l-1.7,0c-0.2,1.1-0.7,2.3-1.3,3.3l1.2,1.2c0.3,0.3,0.3,0.8,0,1.1L57.3,40   c-0.3,0.3-0.8,0.3-1.1,0l-1.2-1.2c-1,0.7-2.1,1.1-3.3,1.4l0,1.7c0,0.4-0.3,0.7-0.7,0.7l-2,0c-0.4,0-0.7-0.3-0.7-0.7l0-1.7   C47.1,40,46,39.5,45,38.9l-1.2,1.2c-0.3,0.3-0.8,0.3-1.1,0l-1.4-1.4c-0.3-0.3-0.3-0.8,0-1.1l1.2-1.2c-0.7-1-1.1-2.1-1.4-3.3l-1.7,0   c-0.4,0-0.7-0.3-0.7-0.7l0-2C38.7,29.9,39.1,29.6,39.5,29.6z M46.3,35.1c2.1,2,5.4,2,7.4,0c2-2.1,2-5.4,0-7.4c-2.1-2-5.4-2-7.4,0   C44.3,29.7,44.3,33,46.3,35.1z M48.5,69L48.5,69l-4.8,0c-1.1,0-1.9,0.9-1.9,1.9V78c0,1.1,0.9,1.9,1.9,1.9h12.7   c1.1,0,1.9-0.9,1.9-1.9v-7.1c0-1.1-0.9-1.9-1.9-1.9h-4.8v0H48.5z M63.3,79.9H76c1.1,0,1.9-0.9,1.9-1.9v-7.1c0-1.1-0.9-1.9-1.9-1.9   h-4.8v0h-3v0h-4.8c-1.1,0-1.9,0.9-1.9,1.9V78C61.4,79.1,62.3,79.9,63.3,79.9z M38.6,78v-7.1c0-1.1-0.9-1.9-1.9-1.9h-4.8v0h-3v0H24   c-1.1,0-1.9,0.9-1.9,1.9V78c0,1.1,0.9,1.9,1.9,1.9h12.7C37.7,79.9,38.6,79.1,38.6,78z"></path></g></svg>