<svg xmlns="http://www.w3.org/2000/svg" xmlns:xlink="http://www.w3.org/1999/xlink" version="1.1" x="0px" y="0px" viewBox="0 0 100 100" enable-background="new 0 0 100 100" xml:space="preserve"><g><path d="M78,69.8H52.3v5.2h-4.7v-5.2H22v5.2h-4.7v-7.6c0-1.3,1-2.3,2.3-2.3h28h4.7h28c1.3,0,2.3,1,2.3,2.3v7.6H78V69.8z M26,60.1   h24H50h24c-0.1-10,0.3-15.3-6.2-17.6c-5.9-2.2-9.4-4.5-9.4-4.5l-4.5,14.3l-0.6,1.9l-2-5.7c4.7-6.5-0.4-6.8-1.2-6.8v0c0,0,0,0,0,0   s0,0,0,0s0,0,0,0s0,0,0,0v0c-0.9,0-5.9,0.3-1.2,6.8l-2,5.7l-0.6-1.9L41.6,38c0,0-3.5,2.3-9.4,4.5C25.7,44.8,26.1,50.2,26,60.1z    M53.7,24.9c2-2,2-5.3,0-7.2c-2-2-5.3-2-7.2,0c-2,2-2,5.3,0,7.2C48.4,26.9,51.7,26.9,53.7,24.9z M33.8,18.6l2.6,0   c0.3-1.8,1-3.5,2.1-5l-1.8-1.8c-0.4-0.4-0.4-1.2,0-1.6l2.2-2.2c0.4-0.4,1.2-0.4,1.6,0l1.8,1.8c1.5-1,3.3-1.7,5-2.1l0-2.6   c0-0.6,0.5-1.1,1.1-1.1l3.1,0c0.6,0,1.1,0.5,1.1,1.1l0,2.6c1.8,0.3,3.5,1,5,2.1l1.8-1.8c0.4-0.4,1.2-0.4,1.6,0l2.2,2.2   c0.4,0.4,0.4,1.2,0,1.6l-1.8,1.8c1,1.5,1.7,3.3,2.1,5l2.6,0c0.6,0,1.1,0.5,1.1,1.1l0,3.1c0,0.6-0.5,1.1-1.1,1.1l-2.6,0   c-0.3,1.8-1,3.5-2.1,5l1.8,1.8c0.4,0.4,0.4,1.2,0,1.6l-2.2,2.2c-0.4,0.4-1.2,0.4-1.6,0l-1.8-1.8c-1.5,1-3.3,1.7-5,2.1l0,2.6   c0,0.6-0.5,1.1-1.1,1.1l-3.1,0c-0.6,0-1.1-0.5-1.1-1.1l0-2.6c-1.8-0.3-3.5-1-5-2.1l-1.8,1.8c-0.4,0.4-1.2,0.4-1.6,0l-2.2-2.2   c-0.4-0.4-0.4-1.2,0-1.6l1.8-1.8c-1-1.5-1.7-3.3-2.1-5l-2.6,0c-0.6,0-1.1-0.5-1.1-1.1l0-3.1C32.7,19.1,33.2,18.6,33.8,18.6z    M44.3,27c3.2,3.1,8.3,3.1,11.4,0c3.1-3.2,3.1-8.3,0-11.4c-3.2-3.1-8.3-3.1-11.4,0C41.2,18.8,41.2,23.9,44.3,27z M47.7,79.2   L47.7,79.2l-7.4,0c-1.6,0-3,1.3-3,3v10.9c0,1.6,1.3,3,3,3h19.5c1.6,0,3-1.3,3-3V82.2c0-1.6-1.3-3-3-3h-7.4v0H47.7z M70.5,96.1h19.5   c1.6,0,3-1.3,3-3V82.2c0-1.6-1.3-3-3-3h-7.4v0H78v0h-7.4c-1.6,0-3,1.3-3,3v10.9C67.5,94.7,68.9,96.1,70.5,96.1z M32.5,93.1V82.2   c0-1.6-1.3-3-3-3H22v0h-4.7v0H9.9c-1.6,0-3,1.3-3,3v10.9c0,1.6,1.3,3,3,3h19.5C31.1,96.1,32.5,94.7,32.5,93.1z"></path></g></svg>