<svg xmlns="http://www.w3.org/2000/svg" xmlns:xlink="http://www.w3.org/1999/xlink" xmlns:sketch="http://www.bohemiancoding.com/sketch/ns" viewBox="0 0 100 100" version="1.1" x="0px" y="0px"><title>Truck-3</title><desc>Created with Sketch.</desc><g stroke="none" stroke-width="1" fill="none" fill-rule="evenodd" sketch:type="MSPage"><g sketch:type="MSLayerGroup" fill="#000000"><path d="M92.1587033,58.9310345 C92.3235896,59.3688724 92.4137931,59.8434742 92.4137931,60.3394327 L92.4137931,66.1724138 L92.4137931,66.1724138 L93.0019624,66.1724138 C94.1054481,66.1724138 95,67.0639334 95,68.1677051 L95,72.970226 C95,74.0721949 94.1099876,74.9655172 93.0019624,74.9655172 L89.2394169,74.9655172 C89.1234319,74.9655172 89.0097552,74.955668 88.8991828,74.9367584 C88.7409048,74.9557465 88.5797501,74.9655172 88.4162678,74.9655172 L84.643074,74.9655172 C84.6511096,74.7941124 84.6551724,74.6216686 84.6551724,74.4482759 C84.6551724,68.4493208 79.7920585,63.5862069 73.7931034,63.5862069 C67.7941484,63.5862069 62.9310345,68.4493208 62.9310345,74.4482759 C62.9310345,74.6216686 62.9350973,74.7941124 62.9431329,74.9655172 L62.9431329,74.9655172 L37.0568671,74.9655172 L37.0568671,74.9655172 C37.0649027,74.7941124 37.0689655,74.6216686 37.0689655,74.4482759 C37.0689655,68.4493208 32.2058516,63.5862069 26.2068966,63.5862069 C20.2079415,63.5862069 15.3448276,68.4493208 15.3448276,74.4482759 C15.3448276,74.6216686 15.3488904,74.7941124 15.356926,74.9655172 L8.99752531,74.9655172 C6.78975304,74.9655172 5,73.1800872 5,70.9709121 L5,60.3394327 C5,58.1332732 6.78573488,56.3448276 8.99752531,56.3448276 L52.5862069,56.3448276 L52.5862069,35.0767986 C52.5862069,33.967903 53.4907955,33.0689655 54.5806013,33.0689655 L76.0083669,33.0689655 C77.1098405,33.0689655 78.4889863,33.8150759 79.0955993,34.7459212 L93.7637084,57.2540788 C94.3672661,58.1802359 93.9541145,58.9310345 92.8603487,58.9310345 L92.1587033,58.9310345 L92.1587033,58.9310345 Z M5,20.0031562 C5,17.7922741 6.7843298,16 8.99945875,16 L46.5177826,16 C48.7266227,16 50.5172414,17.7962291 50.5172414,20.0031562 L50.5172414,49.2382232 C50.5172414,51.4491052 48.7329116,53.2413793 46.5177826,53.2413793 L8.99945875,53.2413793 C6.79061867,53.2413793 5,51.4451502 5,49.2382232 L5,20.0031562 Z M56.2068966,38.1652222 C56.2068966,37.0646245 57.1050111,36.1724138 58.1996365,36.1724138 L72.8348462,36.1724138 C73.9354061,36.1724138 74.8275862,37.06803 74.8275862,38.1652222 L74.8275862,53.8347778 C74.8275862,54.9353755 73.9294716,55.8275862 72.8348462,55.8275862 L58.1996365,55.8275862 C57.0990766,55.8275862 56.2068966,54.93197 56.2068966,53.8347778 L56.2068966,38.1652222 Z M77.9310345,36.6896552 L89.8077869,55.3103448 L77.9310345,55.3103448 L77.9310345,36.6896552 Z M26.2068966,83.2413793 C31.0631935,83.2413793 35,79.3045728 35,74.4482759 C35,69.5919789 31.0631935,65.6551724 26.2068966,65.6551724 C21.3505996,65.6551724 17.4137931,69.5919789 17.4137931,74.4482759 C17.4137931,79.3045728 21.3505996,83.2413793 26.2068966,83.2413793 Z M73.7931034,83.2413793 C78.6494004,83.2413793 82.5862069,79.3045728 82.5862069,74.4482759 C82.5862069,69.5919789 78.6494004,65.6551724 73.7931034,65.6551724 C68.9368065,65.6551724 65,69.5919789 65,74.4482759 C65,79.3045728 68.9368065,83.2413793 73.7931034,83.2413793 Z" sketch:type="MSShapeGroup"></path></g></g></svg>