<svg xmlns="http://www.w3.org/2000/svg" xmlns:xlink="http://www.w3.org/1999/xlink" version="1.1" x="0px" y="0px" viewBox="0 0 100 100" enable-background="new 0 0 100 100" xml:space="preserve"><g><path d="M68.416,12.595L61.08,25.302c-0.33-0.138-0.664-0.252-1.007-0.322c-1.505-0.307-2.219,0.319-2.522,0.845l-1.088,1.884   c-0.557-0.213-1.125-0.418-1.716-0.604c-0.584-0.184-1.157-0.276-1.705-0.276c-1.387,0-2.498,0.603-3.13,1.695L24.121,73.195   l-4.083-2.356l-0.873,1.512l7.387,4.267l-4.854,8.407l-3.551-2.051l-1.755,3.042l0.458,0.473c4.208,4.34,9.253,7.253,14.995,8.654   l0.635,0.155l1.754-3.036l-3.674-2.121l3.141-5.44c0.05-0.086,0.098-0.168,0.142-0.245l1.572-2.722l7.388,4.265l0.872-1.512   l-4.082-2.357l25.793-44.672c0.866-1.503,0.455-3.231-1.159-4.866c-0.433-0.438-0.901-0.852-1.388-1.254l1.065-1.845   c0.483-0.84,0.269-1.832-0.574-2.653c-0.247-0.241-0.496-0.456-0.746-0.65l7.345-12.721L68.416,12.595z M31.627,93.286   c-4.95-1.322-9.338-3.859-13.061-7.545l0.22-0.383l6.662,3.846l4.239,2.448l0-0.001l2.163,1.248L31.627,93.286z M32.659,83.016   c-0.003,0.005-0.006,0.01-0.009,0.015l-3.601,6.238l-5.838-3.372l4.854-8.407l5.838,3.37L32.659,83.016z M63.873,36.584   l-2.027,3.511l-7.143-4.125l-0.872,1.512l7.143,4.125l-3.476,6.019l-7.145-4.124l-0.872,1.512l7.144,4.124l-3.369,5.836   l-7.145-4.124l-0.872,1.512l7.144,4.124l-3.439,5.959l-7.145-4.125l-0.872,1.512l7.144,4.126l-3.512,6.081l-7.144-4.126   l-0.872,1.513l7.143,4.125l-5.594,9.69l-12.449-7.188l25.782-44.657c0.315-0.546,0.859-0.823,1.618-0.823   c0.37,0,0.768,0.066,1.183,0.196c1.56,0.491,2.964,1.074,4.242,1.747l1.39,0.803c1.164,0.736,2.208,1.562,3.128,2.496   C64.025,34.871,64.325,35.802,63.873,36.584z M59.573,29.141l-1.441-0.833l0.931-1.611c0.011-0.02,0.034-0.061,0.229-0.061   c0.116,0,0.262,0.018,0.434,0.053c0.81,0.165,1.591,0.623,2.388,1.4c0.14,0.136,0.355,0.4,0.28,0.53l-0.931,1.612l-0.966-0.558   C60.195,29.49,59.889,29.313,59.573,29.141z"></path><path d="M78.298,4.702c-1.452,0-5.879,1.14-8.884,6.345c-0.2,0.347-0.138,0.788,0.152,1.065c0.29,0.278,0.731,0.322,1.07,0.107   c1.328-0.84,2.465-1.249,3.475-1.249c1.143,0,1.998,0.526,2.903,1.084c0.889,0.547,1.808,1.114,2.968,1.114   c0.098,0,0.197-0.004,0.298-0.013c2.044-0.173,3.41-1.734,3.323-3.794C83.508,7.103,81.615,4.702,78.298,4.702z M80.132,11.417   c-0.733,0.062-1.403-0.356-2.201-0.848c-0.972-0.598-2.182-1.343-3.819-1.343c-0.422,0-0.852,0.048-1.293,0.146   c2.661-2.772,5.445-2.924,5.479-2.924c2.521,0,3.511,1.787,3.562,2.988C81.878,9.864,81.807,11.274,80.132,11.417z"></path></g></svg>