<svg xmlns="http://www.w3.org/2000/svg" xmlns:xlink="http://www.w3.org/1999/xlink" version="1.1" x="0px" y="0px" viewBox="0 0 100 71.198" enable-background="new 0 0 100 71.198" xml:space="preserve"><g><path d="M97.223,16.667H80.101c1.177-2.968,2.185-4.664,2.209-4.704c1.996-3.204,1.002-7.493-2.243-9.519   c-1.098-0.688-2.371-1.055-3.676-1.055c-2.405,0-4.605,1.217-5.884,3.255c-0.474,0.756-3.052,5.055-5.157,12.023H2.777   C1.244,16.667,0,17.911,0,19.444c0,1.534,1.244,2.778,2.777,2.778h5.795v46.199c0,1.533,1.243,2.777,2.777,2.777   s2.778-1.244,2.778-2.777V22.222h49.804c-0.219,1.045-0.418,2.133-0.596,3.256c-6.62-1.076-16.328-1.965-18.658,1.529   c-1.521,2.279-0.543,3.965,0.402,5.594c0.3,0.518,0.622,1.086,0.924,1.732c-3.54,0.241-6.601,1.147-9.3,2.767   c-3.282,1.971-4.352,6.244-2.381,9.527C35.571,48.709,37.853,50,40.279,50c1.257,0,2.493-0.342,3.571-0.99   c0.973-0.582,2.31-0.865,4.089-0.865c2.242,0,4.892,0.452,7.453,0.889c0.514,0.087,1.033,0.173,1.552,0.259v9.101   c-5.315,0.422-9.445,3.241-10.258,6.938c-1.279,0.25-2.242,1.374-2.242,2.725c0,1.534,1.242,2.777,2.778,2.777   c1.535,0,2.777-1.243,2.777-2.777c0-0.681-0.254-1.297-0.661-1.78c0.306-2.551,3.551-4.683,7.605-5.088v4.475   c-0.827,0.481-1.389,1.368-1.389,2.394c0,1.534,1.242,2.777,2.777,2.777c1.536,0,2.778-1.243,2.778-2.777   c0-1.025-0.562-1.912-1.389-2.393v-4.476c4.054,0.405,7.3,2.538,7.605,5.088c-0.406,0.483-0.661,1.1-0.661,1.78   c0,1.534,1.242,2.777,2.777,2.777s2.778-1.243,2.778-2.777c0-1.351-0.965-2.475-2.243-2.725c-0.813-3.697-4.941-6.516-10.257-6.938   v-8.688C61.117,49.88,62.512,50,63.889,50c8.294,0,12.5-4.673,12.5-13.889c0-5.341,0.83-10.066,1.867-13.889h10.633v46.199   c0,1.533,1.244,2.777,2.778,2.777s2.777-1.244,2.777-2.777V22.222h2.778c1.533,0,2.777-1.244,2.777-2.778   C100,17.911,98.756,16.667,97.223,16.667z M46.989,28.548c1.144-1.718,8.448-1.5,15.967-0.305c-0.284,2.448-0.453,5.05-0.456,7.797   c-1.405-0.126-3.056-0.407-4.777-0.7c-2.662-0.454-5.651-0.94-8.728-1.039c-0.481-1.296-1.05-2.296-1.513-3.094   C46.561,29.618,46.463,29.337,46.989,28.548z M77.567,9.068c-0.033,0.054-1.729,2.826-3.409,7.598   c-0.573,1.627-1.143,3.491-1.646,5.556c-0.584,2.394-1.076,5.059-1.373,7.958c-0.193,1.884-0.306,3.864-0.306,5.931   c0,6.152-1.817,8.333-6.944,8.333c-2.338,0-4.876-0.432-7.562-0.889c-0.689-0.117-1.382-0.234-2.073-0.346   c-0.036-0.006-0.071-0.011-0.106-0.017c-0.664-0.105-1.326-0.204-1.986-0.291c-0.059-0.007-0.116-0.014-0.174-0.021   c-0.639-0.081-1.273-0.15-1.902-0.2c-0.072-0.005-0.143-0.009-0.214-0.015c-0.616-0.045-1.226-0.071-1.828-0.074   c-0.168-0.001-0.335,0.002-0.502,0.005c-0.13,0.002-0.259,0.004-0.388,0.009c-0.186,0.007-0.37,0.02-0.555,0.031   c-0.131,0.009-0.262,0.017-0.393,0.028c-0.177,0.016-0.353,0.038-0.529,0.06c-0.134,0.017-0.268,0.03-0.401,0.05   c-0.168,0.025-0.334,0.058-0.5,0.089c-0.136,0.025-0.273,0.048-0.407,0.076c-0.161,0.035-0.32,0.079-0.479,0.12   c-0.135,0.035-0.271,0.066-0.405,0.105c-0.158,0.047-0.312,0.103-0.468,0.156c-0.13,0.044-0.262,0.084-0.391,0.134   c-0.119,0.045-0.233,0.101-0.35,0.15c-0.045,0.019-0.09,0.037-0.134,0.058c-0.115,0.051-0.232,0.095-0.346,0.15   c-0.272,0.132-0.539,0.274-0.801,0.432c-0.224,0.135-0.471,0.198-0.713,0.198c-0.473,0-0.932-0.24-1.192-0.674   c-0.395-0.658-0.182-1.512,0.476-1.906c0.321-0.193,0.648-0.369,0.979-0.531c0.001,0,0.002-0.001,0.004-0.002   c0.211-0.103,0.428-0.189,0.643-0.281c0.12-0.051,0.237-0.109,0.358-0.156c0.221-0.086,0.445-0.157,0.669-0.231   c0.12-0.04,0.238-0.087,0.359-0.124c0.218-0.066,0.44-0.118,0.661-0.175c0.13-0.032,0.258-0.072,0.389-0.102   c0.212-0.048,0.427-0.084,0.641-0.123c0.143-0.026,0.283-0.059,0.426-0.081c0.198-0.031,0.399-0.053,0.599-0.077   c0.162-0.02,0.322-0.045,0.484-0.062c0.186-0.018,0.374-0.026,0.561-0.04c0.178-0.013,0.355-0.029,0.534-0.037   c0.112-0.005,0.225-0.005,0.337-0.008c0.071-0.003,0.142-0.003,0.213-0.005c0.177-0.004,0.353-0.012,0.53-0.012   c0.005,0,0.01,0.001,0.015,0.001c0.671,0,1.346,0.029,2.021,0.076c0.057,0.004,0.114,0.006,0.171,0.01   c0.013,0.001,0.026,0.002,0.04,0.003c0.736,0.055,1.473,0.134,2.205,0.227c0.008,0.001,0.017,0.002,0.024,0.003   c0.736,0.095,1.469,0.203,2.193,0.318c0.005,0.001,0.01,0.002,0.015,0.003c0.729,0.116,1.448,0.238,2.157,0.359   c2.569,0.438,4.995,0.85,7.098,0.85c0.386,0,0.74-0.007,1.065-0.029c2.274-0.157,3.102-1.064,3.102-5.526   c0-2.465,0.149-4.804,0.4-7.01c0.098-0.854,0.21-1.685,0.336-2.497c0.239-1.539,0.523-3.004,0.841-4.383   c0.471-2.041,1.008-3.9,1.561-5.556c1.851-5.547,3.863-8.821,4.019-9.07c0.06-0.095,0.131-0.177,0.208-0.252   c0.024-0.024,0.051-0.044,0.076-0.066c0.058-0.049,0.118-0.093,0.183-0.131c0.029-0.018,0.059-0.035,0.089-0.051   C75.843,7.059,75.92,7.029,76,7.006C76.021,7,76.04,6.991,76.061,6.985c0.101-0.024,0.204-0.037,0.308-0.038   c0.008,0,0.015-0.003,0.022-0.003c0.018,0,0.035,0.007,0.054,0.007c0.089,0.003,0.177,0.016,0.265,0.037   c0.032,0.008,0.063,0.015,0.096,0.025c0.106,0.034,0.212,0.077,0.312,0.139c0.002,0.001,0.005,0.001,0.008,0.003   c0.217,0.136,0.362,0.331,0.473,0.542C77.818,8.119,77.837,8.635,77.567,9.068z"></path><path d="M18.056,13.889h18.056c1.534,0,2.777-1.244,2.777-2.777c0-1.534-1.243-2.778-2.777-2.778H18.056   c-1.534,0-2.778,1.244-2.778,2.778C15.277,12.645,16.521,13.889,18.056,13.889z"></path></g><path d="M20.833,5.556h12.5c1.534,0,2.778-1.244,2.778-2.778S34.867,0,33.333,0h-12.5c-1.534,0-2.777,1.244-2.777,2.778  S19.299,5.556,20.833,5.556z"></path></svg>