<svg xmlns="http://www.w3.org/2000/svg" xmlns:xlink="http://www.w3.org/1999/xlink" version="1.1" preserveAspectRatio="none" x="0px" y="0px" viewBox="0 0 100 100"><defs><g id="b"><path fill="#000000" stroke="none" d=" M 69.2 48.95 Q 70.3 48.9 69.35 48.65 67.4 48.25 57.1 47.45 L 34.5 46.35 Q 31.45 46.65 28.4 49.95 22.25 56.5 22.25 71.35 L 14.5 80.45 36.5 86.85 45.75 75.85 49.15 76.65 Q 52.85 77.3 54.5 76.6 54.25 71 55.95 64.75 59.35 52.25 69.2 48.95 M 36 83.75 L 18.5 79.1 28.5 68.5 45.5 71.6 36 83.75 M 27.55 66.75 L 25.1 69 26.1 64.15 51.35 68.1 51.35 74.1 47.35 73.35 48.2 71.35 48.8 70.25 27.55 66.75 M 78.5 56.35 Q 78.75 51.45 78.05 50.15 L 77.25 49.85 Q 63.35 52.8 59.6 64.75 57.7 70.75 58.6 76.1 L 70.75 73.75 Q 75.8 73.05 77.8 71.05 78.8 70.1 78.75 69.25 L 78.5 56.35 M 46 42.5 Q 46.5 43.75 47.85 43.8 L 64.05 44.7 Q 69.4 45.4 71.65 44.1 72.8 43.4 72.85 42.6 L 73.35 30.25 Q 73.5 27.55 72.5 26.5 L 71.5 26 50.1 27 Q 48.55 27.15 47.85 28.15 L 47.5 29.1 46 42.5 Z"></path></g><path id="a" stroke="#000000" stroke-width="1" stroke-linejoin="round" stroke-linecap="round" fill="none" d=" M 46 42.5 L 47.5 29.1 47.85 28.15 Q 48.55 27.15 50.1 27 L 71.5 26 72.5 26.5 Q 73.5 27.55 73.35 30.25 L 72.85 42.6 Q 72.8 43.4 71.65 44.1 69.4 45.4 64.05 44.7 L 47.85 43.8 Q 46.5 43.75 46 42.5 Z M 54.5 76.6 Q 54.25 71 55.95 64.75 59.35 52.25 69.2 48.95 70.3 48.9 69.35 48.65 67.4 48.25 57.1 47.45 L 34.5 46.35 Q 31.45 46.65 28.4 49.95 22.25 56.5 22.25 71.35 L 14.5 80.45 36.5 86.85 45.75 75.85 49.15 76.65 Q 52.85 77.3 54.5 76.6 Z M 47.35 73.35 L 48.2 71.35 48.8 70.25 27.55 66.75 25.1 69 26.1 64.15 51.35 68.1 51.35 74.1 47.35 73.35 Z M 37.35 76.75 L 29 74.5 M 36.25 79 L 29.25 76.95 M 34.6 80.85 L 31.85 80.1 M 39.1 74.45 L 30.85 72.2 M 36 83.75 L 45.5 71.6 28.5 68.5 18.5 79.1 36 83.75 Z M 58.6 76.1 Q 57.7 70.75 59.6 64.75 63.35 52.8 77.25 49.85 L 78.05 50.15 Q 78.75 51.45 78.5 56.35 L 78.75 69.25 Q 78.8 70.1 77.8 71.05 75.8 73.05 70.75 73.75 L 58.6 76.1 Z"></path></defs><g transform="matrix( 1, 0, 0, 1, 0,0) "><use xlink:href="#b"></use><use xlink:href="#a"></use></g></svg>