<?xml version="1.0" encoding="utf-8"?><!DOCTYPE svg PUBLIC "-//W3C//DTD SVG 1.1//EN" "http://www.w3.org/Graphics/SVG/1.1/DTD/svg11.dtd"><svg version="1.1" xmlns="http://www.w3.org/2000/svg" xmlns:xlink="http://www.w3.org/1999/xlink" x="0px" y="0px" viewBox="-0.058 4.487 100 91.025" enable-background="new -0.058 4.487 100 91.025" xml:space="preserve"><g><path d="M45.996,72.337c0-1.126-0.091-2.23-0.264-3.31l2.112-0.687l-1.972-6.068l-2.114,0.687c-1.008-1.988-2.324-3.797-3.89-5.354
		l1.306-1.797l-5.16-3.752l-1.629,1.799c-1.941-0.996-4.492-1.702-6.609-2.047V50h-7.409v1.809
		c-2.117,0.345-3.518,1.051-5.456,2.049l-0.891-1.799l-4.954,3.75l1.409,1.799c-1.565,1.557-2.827,3.363-3.835,5.354l-2.088-0.686
		l-1.959,6.067l2.12,0.685c-0.174,1.079-0.264,2.183-0.264,3.31c0,1.126,0.094,2.229,0.267,3.308l-2.11,0.685l1.972,6.069
		l2.114-0.686c1.009,1.988,2.323,3.794,3.889,5.352l-1.307,1.798l5.164,3.752l0.471-1.798c1.941,0.998,3.343,1.702,5.46,2.048v2.648
		h7.409v-2.648c2.117-0.346,4.672-1.05,6.61-2.048l1.469,1.797l5.244-3.752l-1.266-1.797c1.564-1.559,2.9-3.364,3.908-5.353
		l2.122,0.685l1.977-6.068l-2.108-0.684C45.902,74.565,45.996,73.463,45.996,72.337z M37.859,73.087
		c-0.13,2.226-0.832,4.297-1.971,6.067c-0.271,0.422-0.559,0.833-0.879,1.22c-1.361,1.655-3.138,2.95-5.165,3.746
		c-0.462,0.183-0.94,0.332-1.427,0.461c-1.021,0.267-2.088,0.424-3.19,0.424c-1.104,0-2.169-0.157-3.192-0.424
		c-0.486-0.128-0.964-0.28-1.428-0.463c-2.026-0.796-3.803-2.093-5.166-3.748c-0.318-0.385-0.603-0.794-0.874-1.216
		c-1.139-1.773-1.84-3.845-1.974-6.069c-0.014-0.248-0.037-0.494-0.037-0.748c0-0.252,0.023-0.5,0.039-0.748
		c0.131-2.226,0.834-4.297,1.972-6.07c0.273-0.421,0.559-0.831,0.877-1.218c1.361-1.653,3.138-2.947,5.165-3.745
		c0.462-0.184,0.938-0.334,1.425-0.461c1.022-0.267,2.088-0.424,3.192-0.424c1.103,0,2.169,0.157,3.19,0.424
		c0.485,0.126,0.963,0.276,1.424,0.458c2.027,0.797,3.806,2.091,5.167,3.746c0.318,0.385,0.605,0.796,0.876,1.218
		c1.139,1.771,1.843,3.846,1.975,6.069c0.015,0.251,0.038,0.499,0.038,0.751C37.897,72.591,37.874,72.836,37.859,73.087z"></path><path d="M99.942,73.286l-10.81-29.637H73.289V32.006h-3.176V18.247H65.88v25.402h-4.011l-9.236-32.812h-3.063l5.761,21.168h-6.542
		l-7.779-7.759l2.899-2.891c0.609-0.611,0.609-1.597,0-2.206c-0.611-0.611-1.602-0.609-2.21,0.002l-7.163,7.164
		c-0.612,0.611-0.612,1.602,0,2.211c0.608,0.611,1.599,0.612,2.21,0.003l2.899-2.919l6.416,6.395H20.367v-6.703
		c0-3.722-1.737-7.056-5.46-7.056H9.783v-7.409H6.607v32.305c-2.117,1.452-4.059,3.146-5.866,5.083
		c-1.163,1.248-1.029,3.202,0.218,4.365c1.248,1.165,3.235,1.096,4.396-0.15c5.3-5.685,12.812-8.942,20.58-8.942
		c15.5,0,28.116,12.611,28.116,28.112c0,1.794-0.165,3.591-0.499,5.333c-0.324,1.678,0.773,3.296,2.448,3.617
		c0.198,0.039,0.394,0.056,0.587,0.056c1.45,0,2.749-1.457,3.03-2.935c0.25-1.305,0.416-2.276,0.515-4.393h11.894
		c-2.078,2.116-3.354,5.738-3.354,9.068c0,7.105,5.759,13.08,12.865,13.08c7.105,0,12.865-6.082,12.865-13.187
		c0-3.331-1.276-6.847-3.354-8.963L99.942,73.286L99.942,73.286z M81.542,89.812c-3.874,0-7.031-3.154-7.031-7.027
		c0-3.877,3.157-7.033,7.031-7.033c3.876,0,7.03,3.154,7.03,7.033C88.57,86.658,85.418,89.812,81.542,89.812z"></path><polygon points="54.349,4.487 2.374,4.487 2.374,8.721 55.203,8.721 	"></polygon></g></svg>