<?xml version="1.0" encoding="utf-8"?>
<!-- Generator: Adobe Illustrator 16.0.0, SVG Export Plug-In . SVG Version: 6.00 Build 0)  -->
<!DOCTYPE svg PUBLIC "-//W3C//DTD SVG 1.1//EN" "http://www.w3.org/Graphics/SVG/1.1/DTD/svg11.dtd">
<svg version="1.1" id="Layer_1" xmlns="http://www.w3.org/2000/svg" xmlns:xlink="http://www.w3.org/1999/xlink" x="0px" y="0px"
	 width="3600px" height="2880px" viewBox="0 0 3600 2880" enable-background="new 0 0 3600 2880" xml:space="preserve">
<path fill="#020202" d="M1581.911,1579.879L1465.85,1283.92c-22.559-55.854-70.155-103.874-159.605-104.51H1140.83v-76.93
	c0.15-30.361-16.783-46.025-43.545-46.39h-97.191h-95.771c-27.428,0.333-44.301,15.997-44.967,46.39v76.93H692.4
	c-89.086,0.636-136.715,48.656-158.125,104.51l-117.541,295.959c-46.057,5.504-127.977,58.787-127.734,159.667v375.823h113.188
	v120.354c0.121,147.209,213.524,145.485,213.312,0v-120.354h384.531h383.08v120.354c0.213,145.485,213.586,147.209,213.283,0
	v-120.354h114.641v-375.823C1710.28,1638.666,1628.33,1585.383,1581.911,1579.879z M512.504,1886.089
	c-54.553-0.544-98.643-45.179-98.703-100.185c0.061-54.916,44.15-99.551,98.703-100.096c54.311,0.545,98.432,45.148,98.643,100.096
	C610.936,1840.91,566.814,1885.545,512.504,1886.089z M1000.033,1572.621h-1.422H537.119l88.543-227.828
	c11.098-33.324,27.609-56.881,66.738-56.609h306.211h1.422h307.602c38.072-0.271,54.583,23.315,65.318,56.609l88.543,227.828
	H1000.033z M1486.111,1886.089c-53.949-0.544-98.101-45.146-98.674-100.154c0.573-54.916,44.725-99.55,98.674-100.095
	c54.885,0.545,99.035,45.148,98.703,100.095C1585.146,1840.91,1540.996,1885.545,1486.111,1886.089z"/>
<path fill="#020202" d="M1486.111,1785.904"/>
<path fill="#020202" d="M3073.561,1765.583"/>
<path fill="#020202" d="M2015.734,1765.583"/>
<g>
	<path fill="#020202" d="M2536.679,494.505c2.632,0,5.384,0.151,8.044,0.151c2.57,0,5.322-0.151,7.953-0.151H2536.679z"/>
	<path fill="#020202" d="M3239.003,768.781c-21.198-102.303-87.575-143.125-187.187-184.373
		c-98.099-39.856-332.941-87.969-507.095-89.752c-173.939,1.783-408.784,49.896-507.186,89.752
		c-99.218,41.248-165.654,82.07-185.765,184.373l-75.448,565.82v780.768h129.125v121.867c-0.395,149.535,221.296,149.535,222.021,0
		v-121.867h409.208h426.597v121.867c-0.453,149.535,221.235,149.535,220.569,0v-121.867H3313v-780.768L3239.003,768.781z
		 M2229.077,638.175h307.602h323.599c62.898-0.241,62.898,91.628,0,91.386h-323.599h-307.602
		C2166.45,729.803,2166.45,637.934,2229.077,638.175z M2015.734,1870.062c-58.425,0.604-106.021-46.358-105.9-104.479
		c-0.121-57.607,47.477-104.449,105.9-104.449c59.027,0,106.655,46.843,105.931,104.449
		C2122.391,1823.704,2074.763,1870.667,2015.734,1870.062z M2536.679,1394.145h-562.978c-55.644,0.425-67.226-38.615-62.416-78.352
		l58.061-410.659c8.68-49.594,25.855-82.495,91.387-82.676h475.946h491.884c65.894,0.181,83.131,33.082,91.416,82.676
		l58.091,410.659c5.142,39.735-6.472,78.745-62.445,78.352H2536.679z M3073.561,1870.062
		c-58.666,0.604-106.295-46.358-105.961-104.479c-0.334-57.607,47.266-104.449,105.961-104.449
		c58.816,0,106.414,46.843,105.931,104.449C3179.975,1823.704,3132.377,1870.667,3073.561,1870.062z"/>
</g>
</svg>
