<?xml version="1.0" encoding="UTF-8" standalone="no"?>
<svg
   xmlns:dc="http://purl.org/dc/elements/1.1/"
   xmlns:cc="http://creativecommons.org/ns#"
   xmlns:rdf="http://www.w3.org/1999/02/22-rdf-syntax-ns#"
   xmlns:svg="http://www.w3.org/2000/svg"
   xmlns="http://www.w3.org/2000/svg"
   xmlns:sodipodi="http://sodipodi.sourceforge.net/DTD/sodipodi-0.dtd"
   xmlns:inkscape="http://www.inkscape.org/namespaces/inkscape"
   version="1.1"
   x="0px"
   y="0px"
   viewBox="0 0 100 100"
   enable-background="new 0 0 100 100"
   xml:space="preserve"
   id="svg2"
   inkscape:version="0.48.5 r10040"
   width="100%"
   height="100%"
   sodipodi:docname="noun_87982.svg"><metadata
     id="metadata10"><rdf:RDF><cc:Work
         rdf:about=""><dc:format>image/svg+xml</dc:format><dc:type
           rdf:resource="http://purl.org/dc/dcmitype/StillImage" /><dc:title></dc:title></cc:Work></rdf:RDF></metadata><defs
     id="defs8" /><sodipodi:namedview
     pagecolor="#ffffff"
     bordercolor="#666666"
     borderopacity="1"
     objecttolerance="10"
     gridtolerance="10"
     guidetolerance="10"
     inkscape:pageopacity="0"
     inkscape:pageshadow="2"
     inkscape:window-width="730"
     inkscape:window-height="480"
     id="namedview6"
     showgrid="false"
     inkscape:zoom="4.72"
     inkscape:cx="58.543088"
     inkscape:cy="59.538438"
     inkscape:window-x="0"
     inkscape:window-y="0"
     inkscape:window-maximized="0"
     inkscape:current-layer="svg2" /><path
     d="M 15.555,78.946 C 15.463,78.838 15.367,78.734 15.276,78.624 15.11,78.423 14.955,78.212 14.792,78.008 14.506,77.649 14.216,77.292 13.94,76.924 13.93,76.911 13.922,76.898 13.913,76.885 12.04,74.375 10.433,71.658 9.11,68.783 8.819,68.152 8.543,67.514 8.282,66.868 7.27,64.37 6.467,61.766 5.915,59.069 5.895,58.973 5.883,58.876 5.863,58.78 5.678,57.844 5.529,56.896 5.403,55.94 5.254,54.806 5.137,53.662 5.074,52.503 5.027,51.675 5,50.841 5,50 5,25.146 25.146,5 50,5 c 0.841,0 1.675,0.027 2.504,0.073 1.159,0.063 2.303,0.18 3.437,0.33 0.956,0.126 1.904,0.275 2.84,0.46 0.096,0.019 0.193,0.032 0.289,0.051 2.697,0.552 5.301,1.356 7.799,2.367 0.646,0.262 1.284,0.538 1.915,0.829 2.875,1.323 5.592,2.93 8.102,4.803 0.013,0.009 0.026,0.018 0.039,0.027 0.368,0.275 0.725,0.565 1.083,0.852 0.205,0.163 0.416,0.318 0.617,0.485 0.109,0.09 0.213,0.188 0.322,0.279 0.994,0.836 1.956,1.708 2.873,2.625 0.917,0.917 1.79,1.879 2.625,2.873 0.091,0.109 0.188,0.213 0.279,0.322 0.167,0.202 0.322,0.413 0.485,0.617 0.286,0.359 0.576,0.715 0.852,1.083 0.009,0.013 0.018,0.026 0.027,0.039 3.872,5.189 6.652,11.241 7.998,17.816 0.02,0.096 0.032,0.193 0.051,0.289 0.185,0.936 0.334,1.884 0.46,2.84 0.149,1.134 0.266,2.278 0.33,3.437 C 94.973,48.325 95,49.159 95,50 95,74.854 74.854,95 50,95 49.159,95 48.325,94.973 47.496,94.927 46.338,94.864 45.193,94.747 44.059,94.598 43.103,94.472 42.155,94.323 41.219,94.138 41.123,94.118 41.026,94.106 40.93,94.086 34.355,92.74 28.303,89.96 23.115,86.088 23.102,86.078 23.089,86.07 23.076,86.061 22.708,85.786 22.351,85.496 21.992,85.209 21.788,85.046 21.577,84.891 21.376,84.725 21.266,84.634 21.162,84.537 21.054,84.446 20.06,83.61 19.098,82.738 18.18,81.821 17.263,80.902 16.391,79.94 15.555,78.946 z m 51.36,7.286 c 0.727,-0.342 1.439,-0.708 2.142,-1.091 0.102,-0.055 0.204,-0.108 0.305,-0.164 0.705,-0.393 1.396,-0.806 2.074,-1.238 0.097,-0.062 0.194,-0.125 0.291,-0.188 1.282,-0.833 2.514,-1.736 3.689,-2.706 0.067,-0.056 0.134,-0.109 0.201,-0.165 0.586,-0.49 1.159,-0.996 1.716,-1.518 0.045,-0.043 0.09,-0.088 0.136,-0.131 0.559,-0.528 1.104,-1.07 1.631,-1.63 0.009,-0.01 0.019,-0.02 0.028,-0.029 0.529,-0.562 1.039,-1.142 1.535,-1.733 0.061,-0.071 0.121,-0.145 0.18,-0.217 0.978,-1.183 1.887,-2.422 2.726,-3.712 0.052,-0.081 0.105,-0.16 0.157,-0.241 0.408,-0.638 0.799,-1.287 1.171,-1.949 0.039,-0.068 0.075,-0.139 0.113,-0.207 0.354,-0.638 0.69,-1.285 1.01,-1.943 0.027,-0.056 0.056,-0.111 0.083,-0.167 0.324,-0.677 0.626,-1.366 0.913,-2.062 0.05,-0.122 0.099,-0.245 0.147,-0.367 0.561,-1.403 1.042,-2.846 1.443,-4.321 0.038,-0.14 0.077,-0.278 0.113,-0.419 0.187,-0.721 0.356,-1.447 0.503,-2.184 0.023,-0.116 0.043,-0.234 0.065,-0.352 0.129,-0.678 0.241,-1.36 0.335,-2.05 0.016,-0.116 0.035,-0.231 0.05,-0.349 0.095,-0.745 0.167,-1.497 0.22,-2.255 0.012,-0.165 0.021,-0.331 0.031,-0.497 C 89.969,51.57 90,50.789 90,50 90,49.373 89.981,48.75 89.953,48.131 89.944,47.935 89.929,47.74 89.917,47.545 89.891,47.118 89.86,46.692 89.821,46.269 89.8,46.048 89.778,45.828 89.753,45.608 89.709,45.199 89.656,44.792 89.599,44.387 89.57,44.18 89.542,43.973 89.51,43.767 c -0.077,-0.487 -0.164,-0.97 -0.257,-1.45 -0.022,-0.113 -0.04,-0.229 -0.063,-0.341 -0.12,-0.585 -0.254,-1.166 -0.399,-1.741 -0.045,-0.18 -0.097,-0.358 -0.145,-0.537 -0.107,-0.4 -0.217,-0.799 -0.336,-1.194 -0.065,-0.216 -0.134,-0.432 -0.203,-0.647 -0.115,-0.361 -0.236,-0.72 -0.361,-1.076 -0.075,-0.213 -0.149,-0.427 -0.228,-0.639 -0.143,-0.385 -0.293,-0.765 -0.447,-1.144 -0.069,-0.17 -0.135,-0.343 -0.206,-0.512 -0.223,-0.528 -0.457,-1.05 -0.702,-1.565 -0.08,-0.169 -0.167,-0.335 -0.25,-0.503 -0.175,-0.356 -0.353,-0.711 -0.539,-1.062 -0.113,-0.213 -0.23,-0.424 -0.347,-0.636 -0.168,-0.303 -0.339,-0.604 -0.514,-0.902 -0.126,-0.215 -0.253,-0.43 -0.384,-0.643 -0.185,-0.301 -0.375,-0.598 -0.567,-0.894 -0.126,-0.194 -0.25,-0.391 -0.379,-0.583 -0.293,-0.434 -0.593,-0.862 -0.902,-1.283 -0.129,-0.175 -0.263,-0.347 -0.394,-0.52 -0.236,-0.312 -0.474,-0.622 -0.719,-0.926 -0.16,-0.198 -0.324,-0.392 -0.486,-0.586 -0.21,-0.25 -0.422,-0.5 -0.638,-0.745 -0.174,-0.198 -0.351,-0.395 -0.529,-0.59 -0.219,-0.24 -0.442,-0.476 -0.667,-0.71 -0.177,-0.185 -0.354,-0.371 -0.535,-0.553 -0.272,-0.273 -0.551,-0.54 -0.831,-0.805 -0.216,-0.205 -0.434,-0.408 -0.654,-0.608 -0.326,-0.295 -0.654,-0.587 -0.989,-0.871 -0.193,-0.164 -0.39,-0.321 -0.586,-0.481 -0.254,-0.208 -0.509,-0.413 -0.768,-0.614 -0.209,-0.163 -0.421,-0.323 -0.634,-0.481 -0.26,-0.193 -0.522,-0.383 -0.787,-0.57 -0.21,-0.149 -0.42,-0.299 -0.634,-0.444 C 72.126,16.705 71.818,16.506 71.509,16.307 71.33,16.192 71.153,16.073 70.971,15.961 70.499,15.669 70.02,15.387 69.534,15.115 69.346,15.009 69.153,14.91 68.963,14.807 68.636,14.63 68.308,14.455 67.976,14.288 67.761,14.18 67.543,14.074 67.326,13.97 67.004,13.814 66.679,13.663 66.352,13.516 66.33,13.506 66.307,13.496 66.285,13.486 77.615,21.656 85,34.961 85,50 c 0,15.024 -7.372,28.319 -18.688,36.492 0.181,-0.079 0.366,-0.149 0.545,-0.232 0.02,-0.009 0.039,-0.019 0.058,-0.028 z m 4.502,-2.481 c 0.004,-0.003 0.008,-0.006 0.012,-0.008 -0.654,0.417 -1.319,0.817 -1.999,1.196 0,0 0,0 0,0 0.676,-0.377 1.338,-0.775 1.987,-1.188 z M 63,12.19 c 0.413,0.143 0.825,0.286 1.232,0.441 C 64.178,12.61 64.125,12.588 64.071,12.568 63.718,12.435 63.358,12.314 63,12.19 z m 1.826,0.68 c 0.394,0.158 0.786,0.319 1.174,0.489 -0.098,-0.042 -0.194,-0.087 -0.292,-0.129 -0.291,-0.125 -0.587,-0.242 -0.882,-0.36 z m 1.621,73.572 c -0.05,0.022 -0.103,0.042 -0.154,0.064 v 0.001 c 0.049,-0.022 0.101,-0.041 0.15,-0.063 0.001,-0.001 0.003,-0.001 0.004,-0.002 z m -2.209,0.923 c -0.002,0.001 -0.005,0.002 -0.008,0.003 0.002,-10e-4 0.004,-10e-4 0.006,-0.002 10e-4,0 0.002,-0.001 0.002,-0.001 z"
     id="path4"
     inkscape:connector-curvature="0"
     style="fill:#000000" /></svg>