<svg xmlns="http://www.w3.org/2000/svg" xmlns:xlink="http://www.w3.org/1999/xlink" version="1.1" x="0px" y="0px" viewBox="0 0 100 100" enable-background="new 0 0 100 100" xml:space="preserve"><g><path fill="#000000" d="M50,5C25.147,5,5,25.146,5,50c0,24.853,20.147,45,45,45c24.854,0,45-20.147,45-45C95,25.146,74.854,5,50,5z    M48.279,10.043c-0.385,0.015-0.767,0.045-1.149,0.071C47.512,10.087,47.894,10.06,48.279,10.043z M46.072,10.195   c-0.166,0.016-0.33,0.038-0.495,0.055C45.742,10.232,45.906,10.211,46.072,10.195z M45.601,89.753   c0.153,0.017,0.305,0.036,0.459,0.051C45.906,89.789,45.754,89.77,45.601,89.753z M47.161,89.888   c0.368,0.025,0.734,0.054,1.104,0.068C47.896,89.94,47.528,89.914,47.161,89.888z M50,90c-0.542,0-1.08-0.02-1.617-0.041   c10.978-6.991,18.71-20.586,19.698-36.502c0.5,3.752,3.704,6.648,7.594,6.648c4.235,0,7.67-3.434,7.67-7.669   c0-4.236-3.435-7.67-7.67-7.67c-3.696,0-6.779,2.614-7.506,6.094c0.004-0.288,0.024-0.571,0.024-0.86   c0-1.496-0.08-2.967-0.197-4.425c1.23-1.223,1.992-2.917,1.992-4.788c0-2.747-1.643-5.106-3.995-6.162   c-3.158-10.648-9.499-19.42-17.611-24.584C48.92,10.02,49.458,10,50,10c22.056,0,40,17.944,40,40C90,72.056,72.056,90,50,90z"></path><circle fill="#000000" cx="79.727" cy="37.04" r="4.052"></circle></g></svg>