<svg xmlns="http://www.w3.org/2000/svg" xmlns:xlink="http://www.w3.org/1999/xlink" version="1.1" x="0px" y="0px" viewBox="0 0 100 100" enable-background="new 0 0 100 100" xml:space="preserve"><g><path fill="#000000" d="M50,5C25.147,5,5,25.146,5,50c0,24.853,20.147,45,45,45c24.854,0,45-20.147,45-45C95,25.146,74.854,5,50,5z    M50,90c-22.056,0-40-17.944-40-40c0-22.056,17.944-40,40-40c1.426,0,2.48,6.243,3.142,15.237c-2,1.172-3.347,3.339-3.347,5.825   c0,2.73,1.623,5.076,3.954,6.141C54.49,60.395,53.321,90,50,90z"></path><circle fill="#000000" cx="33.511" cy="27.278" r="9.558"></circle><circle fill="#000000" cx="36.105" cy="68.622" r="4.981"></circle><circle fill="#000000" cx="38.088" cy="60.105" r="3.052"></circle></g></svg>