<svg xmlns="http://www.w3.org/2000/svg" xmlns:xlink="http://www.w3.org/1999/xlink" version="1.1" x="0px" y="0px" viewBox="0 0 100 100" enable-background="new 0 0 100 100" xml:space="preserve"><path fill="#000000" d="M84.445,78.946c0.092-0.108,0.188-0.212,0.279-0.322c0.166-0.201,0.321-0.412,0.484-0.616  c0.286-0.359,0.576-0.716,0.852-1.084c0.01-0.013,0.018-0.026,0.027-0.039c1.873-2.51,3.48-5.227,4.803-8.102  c0.291-0.631,0.567-1.269,0.828-1.915c1.012-2.498,1.815-5.102,2.367-7.799c0.02-0.096,0.032-0.193,0.052-0.289  c0.185-0.936,0.334-1.884,0.46-2.84c0.149-1.134,0.266-2.278,0.329-3.437C94.973,51.675,95,50.841,95,50C95,25.146,74.854,5,50,5  c-0.841,0-1.675,0.027-2.504,0.073c-1.159,0.063-2.303,0.18-3.437,0.33c-0.956,0.126-1.904,0.275-2.84,0.46  c-0.096,0.019-0.193,0.032-0.289,0.051c-2.697,0.552-5.301,1.356-7.799,2.367c-0.646,0.262-1.284,0.538-1.915,0.829  c-2.875,1.323-5.592,2.93-8.102,4.803c-0.013,0.009-0.026,0.018-0.039,0.027c-0.368,0.275-0.725,0.565-1.083,0.852  c-0.205,0.163-0.416,0.318-0.617,0.485c-0.109,0.09-0.213,0.188-0.322,0.279c-0.994,0.836-1.956,1.708-2.873,2.625  s-1.79,1.879-2.625,2.873c-0.091,0.109-0.188,0.213-0.279,0.322c-0.167,0.202-0.322,0.413-0.485,0.617  c-0.286,0.359-0.576,0.715-0.852,1.083c-0.009,0.013-0.018,0.026-0.027,0.039C10.04,28.304,7.26,34.356,5.914,40.931  c-0.02,0.096-0.032,0.193-0.051,0.289c-0.185,0.936-0.334,1.884-0.46,2.84c-0.149,1.134-0.266,2.278-0.33,3.437  C5.027,48.325,5,49.159,5,50c0,24.854,20.146,45,45,45c0.841,0,1.675-0.027,2.504-0.073c1.158-0.063,2.303-0.18,3.437-0.329  c0.956-0.126,1.904-0.275,2.84-0.46c0.096-0.02,0.193-0.032,0.289-0.052c6.575-1.346,12.627-4.126,17.815-7.998  c0.013-0.01,0.026-0.018,0.039-0.027c0.368-0.275,0.725-0.565,1.084-0.852c0.204-0.163,0.415-0.318,0.616-0.484  c0.11-0.091,0.214-0.188,0.322-0.279c0.994-0.836,1.956-1.708,2.874-2.625C82.737,80.902,83.609,79.94,84.445,78.946z   M33.085,86.232c-0.727-0.342-1.439-0.708-2.142-1.091c-0.102-0.055-0.204-0.108-0.305-0.164c-0.705-0.393-1.396-0.806-2.074-1.238  c-0.097-0.062-0.194-0.125-0.291-0.188c-1.282-0.833-2.514-1.736-3.689-2.706c-0.067-0.056-0.134-0.109-0.201-0.165  c-0.586-0.49-1.159-0.996-1.716-1.518c-0.045-0.043-0.09-0.088-0.136-0.131c-0.559-0.528-1.104-1.07-1.631-1.63  c-0.009-0.01-0.019-0.02-0.028-0.029c-0.529-0.562-1.039-1.142-1.535-1.733c-0.061-0.071-0.121-0.145-0.18-0.217  c-0.978-1.183-1.887-2.422-2.726-3.712c-0.052-0.081-0.105-0.16-0.157-0.241c-0.408-0.638-0.799-1.287-1.171-1.949  c-0.039-0.068-0.075-0.139-0.113-0.207c-0.354-0.638-0.69-1.285-1.01-1.943c-0.027-0.056-0.056-0.111-0.083-0.167  c-0.324-0.677-0.626-1.366-0.913-2.062c-0.05-0.122-0.099-0.245-0.147-0.367c-0.561-1.403-1.042-2.846-1.443-4.321  c-0.038-0.14-0.077-0.278-0.113-0.419c-0.187-0.721-0.356-1.447-0.503-2.184c-0.023-0.116-0.043-0.234-0.065-0.352  c-0.129-0.678-0.241-1.36-0.335-2.05c-0.016-0.116-0.035-0.231-0.05-0.349c-0.095-0.745-0.167-1.497-0.22-2.255  c-0.012-0.165-0.021-0.331-0.031-0.497C10.031,51.57,10,50.789,10,50c0-0.627,0.019-1.25,0.047-1.869  c0.009-0.196,0.024-0.391,0.036-0.586c0.026-0.427,0.057-0.853,0.096-1.276c0.021-0.221,0.043-0.441,0.068-0.661  c0.044-0.409,0.097-0.816,0.154-1.221c0.029-0.207,0.057-0.414,0.089-0.62c0.077-0.487,0.164-0.97,0.257-1.45  c0.022-0.113,0.04-0.229,0.063-0.341c0.12-0.585,0.254-1.166,0.399-1.741c0.045-0.18,0.097-0.358,0.145-0.537  c0.107-0.4,0.217-0.799,0.336-1.194c0.065-0.216,0.134-0.432,0.203-0.647c0.115-0.361,0.236-0.72,0.361-1.076  c0.075-0.213,0.149-0.427,0.228-0.639c0.143-0.385,0.293-0.765,0.447-1.144c0.069-0.17,0.135-0.343,0.206-0.512  c0.223-0.528,0.457-1.05,0.702-1.565c0.08-0.169,0.167-0.335,0.25-0.503c0.175-0.356,0.353-0.711,0.539-1.062  c0.113-0.213,0.23-0.424,0.347-0.636c0.168-0.303,0.339-0.604,0.514-0.902c0.126-0.215,0.253-0.43,0.384-0.643  c0.185-0.301,0.375-0.598,0.567-0.894c0.126-0.194,0.25-0.391,0.379-0.583c0.293-0.434,0.593-0.862,0.902-1.283  c0.129-0.175,0.263-0.347,0.394-0.52c0.236-0.312,0.474-0.622,0.719-0.926c0.16-0.198,0.324-0.392,0.486-0.586  c0.21-0.25,0.422-0.5,0.638-0.745c0.174-0.198,0.351-0.395,0.529-0.59c0.219-0.24,0.442-0.476,0.667-0.71  c0.177-0.185,0.354-0.371,0.535-0.553c0.272-0.273,0.551-0.54,0.831-0.805c0.216-0.205,0.434-0.408,0.654-0.608  c0.326-0.295,0.654-0.587,0.989-0.871c0.193-0.164,0.39-0.321,0.586-0.481c0.254-0.208,0.509-0.413,0.768-0.614  c0.209-0.163,0.421-0.323,0.634-0.481c0.26-0.193,0.522-0.383,0.787-0.57c0.21-0.149,0.42-0.299,0.634-0.444  c0.304-0.206,0.612-0.405,0.921-0.604c0.179-0.115,0.356-0.234,0.538-0.346c0.472-0.292,0.951-0.574,1.437-0.846  c0.188-0.106,0.381-0.205,0.571-0.308c0.327-0.177,0.655-0.352,0.987-0.519c0.215-0.108,0.433-0.214,0.65-0.318  c0.322-0.156,0.647-0.307,0.974-0.454c0.022-0.01,0.045-0.02,0.067-0.03C22.385,21.656,15,34.961,15,50  c0,15.024,7.372,28.319,18.688,36.492c-0.181-0.079-0.366-0.149-0.545-0.232C33.123,86.251,33.104,86.241,33.085,86.232z   M28.583,83.751c-0.004-0.003-0.008-0.006-0.012-0.008c0.654,0.417,1.319,0.817,1.999,1.196c0,0,0,0,0,0  C29.894,84.562,29.232,84.164,28.583,83.751z M37,12.19c-0.413,0.143-0.825,0.286-1.232,0.441c0.054-0.021,0.107-0.043,0.161-0.063  C36.282,12.435,36.642,12.314,37,12.19z M35.174,12.87c-0.394,0.158-0.786,0.319-1.174,0.489c0.098-0.042,0.194-0.087,0.292-0.129  C34.583,13.105,34.879,12.988,35.174,12.87z M33.553,86.442c0.05,0.022,0.103,0.042,0.154,0.064v0.001  c-0.049-0.022-0.101-0.041-0.15-0.063C33.556,86.443,33.554,86.443,33.553,86.442z M35.762,87.365  c0.002,0.001,0.005,0.002,0.008,0.003c-0.002-0.001-0.004-0.001-0.006-0.002C35.763,87.366,35.762,87.365,35.762,87.365z"></path></svg>