<svg xmlns="http://www.w3.org/2000/svg" xmlns:xlink="http://www.w3.org/1999/xlink" version="1.1" x="0px" y="0px" viewBox="0 0 100 100" enable-background="new 0 0 100 100" xml:space="preserve"><g><path fill="#000000" d="M50,5C25.147,5,5,25.146,5,50c0,24.853,20.147,45,45,45c24.854,0,45-20.147,45-45C95,25.146,74.854,5,50,5z    M10,50c0-22.056,17.944-40,40-40c2.595,0,5.129,0.257,7.588,0.731c9.038,5.066,16.134,13.163,19.943,22.911   c-1.114,0.721-1.856,1.97-1.856,3.397c0,2.238,1.814,4.053,4.052,4.053c0.002,0,0.003,0,0.005,0   c0.353,1.755,0.603,3.546,0.745,5.369c-1.315-1.058-2.983-1.693-4.802-1.693c-4.236,0-7.67,3.434-7.67,7.67   c0,4.235,3.434,7.669,7.67,7.669c1.489,0,2.874-0.432,4.051-1.166c-2.63,13.037-10.891,24.025-22.141,30.33   C55.128,89.743,52.594,90,50,90C27.944,90,10,72.056,10,50z"></path><path fill="#000000" d="M57.19,37.784c-0.451,0.905-0.711,1.923-0.711,3.003c0,3.73,3.024,6.754,6.754,6.754   c3.73,0,6.755-3.023,6.755-6.754c0-3.731-3.024-6.755-6.755-6.755c-0.217,0-0.43,0.013-0.642,0.032   c0.451-0.905,0.711-1.922,0.711-3.002c0-3.73-3.024-6.754-6.754-6.754c-3.73,0-6.754,3.023-6.754,6.754s3.024,6.754,6.754,6.754   C56.766,37.816,56.979,37.804,57.19,37.784z"></path><circle fill="#000000" cx="33.511" cy="27.278" r="9.558"></circle><circle fill="#000000" cx="36.105" cy="68.622" r="4.981"></circle><circle fill="#000000" cx="38.088" cy="60.105" r="3.052"></circle></g></svg>