<svg xmlns="http://www.w3.org/2000/svg" xmlns:xlink="http://www.w3.org/1999/xlink" version="1.1" x="0px" y="0px" viewBox="0 0 100 100" enable-background="new 0 0 100 100" xml:space="preserve"><g><path fill="#000000" d="M50,5C25.147,5,5,25.146,5,50c0,24.853,20.147,45,45,45c24.854,0,45-20.147,45-45C95,25.146,74.854,5,50,5z    M47.353,89.902c0.51,0.034,1.025,0.043,1.54,0.057c-0.777-0.021-1.552-0.054-2.318-0.119c0.032,0.003,0.064,0.008,0.096,0.011   c-0.774-0.064-1.543-0.147-2.304-0.255c0.565,0.08,1.139,0.133,1.711,0.189c-0.788-0.077-1.572-0.167-2.346-0.289   c0.11,0.018,0.218,0.044,0.329,0.061c-0.865-0.129-1.718-0.291-2.564-0.476c0.598,0.13,1.205,0.233,1.812,0.336   c-0.79-0.134-1.575-0.281-2.348-0.46c0.004,0.001,0.009,0.002,0.014,0.003c-0.009-0.002-0.017-0.004-0.025-0.006   c0.004,0.001,0.008,0.002,0.012,0.003c-0.129-0.03-0.255-0.069-0.383-0.101c0.104,0.025,0.204,0.059,0.308,0.083   c-0.718-0.168-1.429-0.354-2.131-0.56c0.601,0.177,1.211,0.328,1.824,0.477c-0.779-0.188-1.552-0.392-2.312-0.625   c0.055,0.017,0.107,0.038,0.162,0.055c-0.85-0.257-1.687-0.542-2.512-0.854c0.647,0.244,1.309,0.459,1.971,0.67   c-0.753-0.24-1.501-0.492-2.235-0.775c0.008,0.004,0.017,0.008,0.025,0.011c-0.013-0.005-0.025-0.01-0.039-0.016   c0.005,0.002,0.009,0.004,0.014,0.005c-0.143-0.055-0.28-0.121-0.422-0.178c0.128,0.051,0.25,0.112,0.379,0.161   c-0.75-0.29-1.488-0.602-2.215-0.936c0.602,0.276,1.218,0.527,1.835,0.774c-0.71-0.283-1.416-0.576-2.105-0.897   c0.01,0.004,0.02,0.01,0.03,0.015c-1.637-0.764-3.213-1.637-4.721-2.606c0.735,0.473,1.486,0.925,2.253,1.35   c-0.768-0.426-1.519-0.877-2.254-1.35C17.357,76.538,10,64.116,10,50c0-21.842,17.599-39.639,39.36-39.984   c-4.352,2.251-8.285,5.195-11.665,8.678c-1.265-0.618-2.682-0.974-4.185-0.974c-5.279,0-9.558,4.278-9.558,9.558   c0,3.062,1.444,5.779,3.683,7.528C25.932,39.553,25,44.667,25,50c0,17.404,9.888,32.491,24.347,39.976   C49.566,89.979,49.78,90,50,90C49.109,90,48.229,89.96,47.353,89.902z"></path><path fill="#000000" d="M46.575,89.84c-0.167-0.014-0.331-0.038-0.497-0.055C46.244,89.802,46.408,89.826,46.575,89.84z"></path><path fill="#000000" d="M43.732,89.496c-0.143-0.023-0.282-0.055-0.423-0.079C43.45,89.441,43.589,89.473,43.732,89.496z"></path><path fill="#000000" d="M33.124,86.252c-0.198-0.093-0.387-0.2-0.583-0.296C32.736,86.051,32.926,86.159,33.124,86.252z"></path><path fill="#000000" d="M49.347,89.976c-0.152-0.002-0.303-0.012-0.455-0.017c0.157,0.005,0.311,0.021,0.468,0.024   C49.356,89.981,49.352,89.979,49.347,89.976z"></path><path fill="#000000" d="M30.686,85.01c0.606,0.336,1.23,0.641,1.855,0.946C31.916,85.651,31.292,85.345,30.686,85.01z"></path><path fill="#000000" d="M38.266,88.231c-0.128-0.039-0.251-0.088-0.379-0.129C38.014,88.144,38.138,88.192,38.266,88.231z"></path></g></svg>