<svg xmlns="http://www.w3.org/2000/svg" xmlns:xlink="http://www.w3.org/1999/xlink" version="1.1" x="0px" y="0px" viewBox="0 0 100 100" enable-background="new 0 0 100 100" xml:space="preserve"><g><path fill="#000000" d="M50,5C25.147,5,5,25.146,5,50c0,24.853,20.147,45,45,45c24.854,0,45-20.147,45-45C95,25.146,74.854,5,50,5z    M50,90c-22.056,0-40-17.944-40-40c0-22.056,17.944-40,40-40c22.056,0,40,17.944,40,40C90,72.056,72.056,90,50,90z"></path><circle fill="#000000" cx="79.727" cy="37.04" r="4.052"></circle><circle fill="#000000" cx="75.675" cy="52.436" r="7.669"></circle><path fill="#000000" d="M69.988,40.787c0-3.731-3.024-6.755-6.755-6.755c-0.217,0-0.43,0.013-0.642,0.032   c0.451-0.905,0.711-1.922,0.711-3.002c0-3.73-3.024-6.754-6.754-6.754c-3.73,0-6.754,3.023-6.754,6.754s3.024,6.754,6.754,6.754   c0.217,0,0.43-0.012,0.642-0.032c-0.451,0.905-0.711,1.923-0.711,3.003c0,3.73,3.024,6.754,6.754,6.754   C66.964,47.541,69.988,44.518,69.988,40.787z"></path><circle fill="#000000" cx="33.511" cy="27.278" r="9.558"></circle><circle fill="#000000" cx="36.105" cy="68.622" r="4.981"></circle><circle fill="#000000" cx="38.088" cy="60.105" r="3.052"></circle></g></svg>