<svg xmlns="http://www.w3.org/2000/svg" xmlns:xlink="http://www.w3.org/1999/xlink" version="1.1" x="0px" y="0px" viewBox="0 0 100 100" enable-background="new 0 0 100 100" xml:space="preserve"><g><circle fill="#000000" cx="79.727" cy="37.04" r="4.052"></circle><circle fill="#000000" cx="75.675" cy="52.436" r="7.669"></circle><path fill="#000000" d="M69.988,40.787c0-3.731-3.024-6.755-6.755-6.755c-0.217,0-0.43,0.013-0.642,0.032   c0.451-0.905,0.711-1.922,0.711-3.002c0-3.73-3.024-6.754-6.754-6.754c-3.73,0-6.754,3.023-6.754,6.754s3.024,6.754,6.754,6.754   c0.217,0,0.43-0.012,0.642-0.032c-0.451,0.905-0.711,1.923-0.711,3.003c0,3.73,3.024,6.754,6.754,6.754   C66.964,47.541,69.988,44.518,69.988,40.787z"></path></g><path fill="#000000" d="M50,90c-5.104,0-5.46-80,0-80c22.057,0,40,17.944,40,40C90,72.057,72.057,90,50,90 M50,95  c24.853,0,45-20.146,45-45C95,25.147,74.853,5,50,5C25.146,5,5,25.147,5,50C5,74.854,25.146,95,50,95L50,95z"></path></svg>