<svg xmlns="http://www.w3.org/2000/svg" xmlns:xlink="http://www.w3.org/1999/xlink" version="1.1" x="0px" y="0px" viewBox="0 0 90 90" enable-background="new 0 0 90 90" xml:space="preserve"><g display="none"><path display="inline" fill="none" stroke="#000000" stroke-width="3" stroke-linecap="round" stroke-miterlimit="10" d="   M19.831,61.571c1.178,4.965,3.75,9.546,7.361,13.154c5.291,5.292,12.437,7.918,19.578,7.911c7.139,0.007,14.284-2.619,19.575-7.911   c3.609-3.608,6.178-8.189,7.364-13.154c1.156-4.834,0.749-9.892-0.495-14.714c-1.938-7.52-12.438-18.107-18.483-27.192   c-5.817-8.735-6.498-12.519-7.354-14.141c0,0-0.062-0.7-0.607-0.638c-0.545-0.062-0.606,0.638-0.606,0.638   c-0.726,1.119-2.648,7.166-7.326,14.141c-6.795,10.129-15.236,17.776-18.515,27.192C18.687,51.56,18.679,56.737,19.831,61.571z"></path><path display="inline" fill="none" stroke="#000000" stroke-width="3" stroke-linecap="round" stroke-miterlimit="10" d="   M45.126,75.396c5.351,0.005,10.708-1.964,14.675-5.93c2.705-2.705,4.63-6.14,5.521-9.862"></path></g><g display="none"><g display="inline"><g><path fill="none" stroke="#000000" stroke-width="3" stroke-linecap="round" stroke-miterlimit="10" d="M36.617,42.691V30.712     v-7.021c0-1.813-1.47-3.283-3.284-3.283H6.15c-1.815,0-3.283,1.47-3.283,3.283v7.021v11.977"></path><path fill="none" stroke="#000000" stroke-width="3" stroke-linecap="round" stroke-miterlimit="10" d="M19.79,26.282h-7.764     c-1.816,0-3.284,1.471-3.284,3.285v7.02"></path><path fill="none" stroke="#000000" stroke-width="3" stroke-linecap="round" stroke-miterlimit="10" d="M2.867,31.833v11.979     v7.021c0,1.812,1.47,3.283,3.284,3.283h27.183c1.815,0,3.283-1.471,3.283-3.283v-7.021V31.835"></path></g><g><path fill="none" stroke="#000000" stroke-width="3" stroke-linecap="round" stroke-miterlimit="10" d="M49.206,20.688     l2.516,11.71l1.473,6.865c0.382,1.773,2.128,2.902,3.9,2.521l26.576-5.707c1.776-0.382,2.903-2.127,2.521-3.901l-1.474-6.864     l-2.515-11.708"></path><path fill="none" stroke="#000000" stroke-width="3" stroke-linecap="round" stroke-miterlimit="10" d="M69.104,33.198     l7.592-1.63c1.775-0.381,2.902-2.127,2.521-3.9l-1.473-6.865"></path><path fill="none" stroke="#000000" stroke-width="3" stroke-linecap="round" stroke-miterlimit="10" d="M84.484,24.217     L81.97,12.505l-1.476-6.865c-0.383-1.772-2.126-2.901-3.9-2.519L50.019,8.827c-1.775,0.383-2.902,2.128-2.521,3.9l1.475,6.865     l2.516,11.709"></path></g><g><path fill="#000000" stroke="#000000" stroke-width="3" stroke-linecap="round" stroke-miterlimit="10" d="M27.908,53.294     L22.69,64.076l-3.06,6.319c-0.79,1.632-0.107,3.597,1.525,4.388l24.467,11.841c1.635,0.792,3.596,0.107,4.387-1.524l3.059-6.319     L58.285,68"></path><path fill="#000000" stroke="#000000" stroke-width="3" stroke-linecap="round" stroke-miterlimit="10" d="M53.558,77.771     l5.218-10.781l3.059-6.32c0.788-1.633,0.108-3.596-1.526-4.385L35.842,44.44c-1.635-0.791-3.598-0.106-4.386,1.525l-3.059,6.32     l-5.218,10.78"></path><path fill="none" stroke="#000000" stroke-width="3" stroke-linecap="round" stroke-miterlimit="10" d="M35.905,75.396     l6.99,3.383c1.634,0.791,3.596,0.107,4.386-1.524l3.059-6.32"></path></g></g></g><g display="none"><g display="inline"><g><path fill="#000000" stroke="#000000" stroke-width="3" stroke-linecap="round" stroke-miterlimit="10" d="M54.453,21.915v-0.102     c0,0,0-3.26,0-4.765c0.003-3.5,12.294,0.66,11.791-3.512v-0.248L54.905,4.559L35.432,4.77h-6.447     c-1.124,0-2.036,0.911-2.036,2.037v2.175"></path><path fill="#000000" stroke="#000000" stroke-width="3" stroke-linecap="round" stroke-miterlimit="10" d="M26.949,8.833v1.388     c0,1.126,0.955,1.512,2.036,2.037l15.083,5.359l0.087,4.298"></path></g><g><path fill="none" stroke="#000000" stroke-width="3" stroke-linecap="round" stroke-miterlimit="10" d="M51.236,22.435h4.163     c1.388,0,2.508,1.123,2.508,2.507v5.717"></path><path fill="none" stroke="#000000" stroke-width="3" stroke-linecap="round" stroke-miterlimit="10" d="M52.903,22.435h-8.902     c-1.388,0-2.509,1.123-2.509,2.507v5.873"></path><line fill="none" stroke="#000000" stroke-width="3" stroke-linecap="round" stroke-miterlimit="10" x1="41.493" y1="31.091" x2="57.907" y2="31.091"></line></g><g><path fill="none" stroke="#000000" stroke-width="3" stroke-linecap="round" stroke-miterlimit="10" d="M43.45,31.767     c0,0,0-1.483,0,4.264s-6.118,11.309-9.641,12.792c-3.522,1.483-4.202,6.252-4.202,6.252l-0.741,28.353     c0,1.384,1.121,2.508,2.508,2.508h13.062"></path><path fill="none" stroke="#000000" stroke-width="3" stroke-linecap="round" stroke-miterlimit="10" d="M37.578,85.935h21.737     c1.388,0,2.509-1.124,2.509-2.508v-32.06c0,0-0.243-3.472-1.479-6.315c-1.237-2.841-4.184-6.689-4.184-8.914     s-0.021-4.063-0.021-4.063"></path></g><path fill="none" stroke="#000000" stroke-width="3" stroke-linecap="round" stroke-miterlimit="10" d="M32.6,13.642    c0.431,1.732-0.769,5.386-1.776,7.721c-0.592,1.37-2.468,1.738-2.791,3.367c-0.473,2.396,3.528,2.086,4.967,0.958    c2.832-2.218,4.132-6.288,5.062-9.562"></path></g></g><g display="none"><g display="inline"><path fill="#000000" stroke="#000000" stroke-width="3" stroke-linecap="round" stroke-miterlimit="10" d="M78.587,22.965    L47.378,5.024c-1.372-0.788-3.06-0.786-4.428,0.008L11.808,23.09c-1.369,0.792-2.21,2.257-2.207,3.838l0.067,35.997    c0.002,1.582,0.848,3.042,2.221,3.832l31.208,17.94c1.373,0.788,3.06,0.786,4.429-0.009l31.142-18.058    c1.368-0.793,2.21-2.256,2.208-3.839l-0.068-35.997C80.805,25.214,79.959,23.754,78.587,22.965z M54.331,60.542    c-8.662,5.021-19.75,2.071-24.773-6.59c-5.022-8.66-2.072-19.75,6.589-24.771c8.66-5.021,19.75-2.072,24.771,6.587    C65.939,44.43,62.99,55.521,54.331,60.542z"></path></g></g><g><g><path fill="none" stroke="#000000" stroke-width="3" stroke-linecap="round" stroke-miterlimit="10" d="M19.864,37.249h28.958    c0,0,12.642,1.188,12.642-10.155c0-7.352-7.922-12.258-14.109-6.722c-2.136,1.911-3.226,5.204-1.719,7.79"></path><path fill="none" stroke="#000000" stroke-width="3" stroke-linecap="round" stroke-miterlimit="10" d="M19.864,55.416h38.467    c0,0,12.643-1.188,12.643,10.157c0,7.349-7.922,12.255-14.111,6.719c-2.136-1.911-3.225-5.204-1.719-7.79"></path><path fill="none" stroke="#000000" stroke-width="3" stroke-linecap="round" stroke-miterlimit="10" d="M3.771,46.518h70.451    c0,0,12.642,1.189,12.642-10.157c0-7.349-7.921-12.255-14.109-6.719c-2.137,1.911-3.226,5.204-1.72,7.79"></path></g></g></svg>