<svg xmlns="http://www.w3.org/2000/svg" xmlns:xlink="http://www.w3.org/1999/xlink" version="1.1" x="0px" y="0px" viewBox="0 0 100 100" enable-background="new 0 0 100 100" xml:space="preserve"><path fill="none" d="M85,50c0,15.048-7.394,28.361-18.738,36.531C80.233,80.287,90,66.267,90,50  c0-16.267-9.766-30.287-23.738-36.531C77.606,21.639,85,34.952,85,50z"></path><path fill="#000000" d="M50,5C25.147,5,5,25.146,5,50c0,24.853,20.147,45,45,45c24.854,0,45-20.147,45-45C95,25.146,74.854,5,50,5z   M52.116,10.057C51.415,10.02,50.71,10,50,10C50.71,10,51.415,10.02,52.116,10.057z M52.116,89.943C51.415,89.98,50.71,90,50,90  C50.71,90,51.415,89.98,52.116,89.943z M62.474,87.998c1.293-0.427,2.557-0.916,3.788-1.467C77.606,78.361,85,65.048,85,50  c0-15.048-7.394-28.361-18.738-36.531c-1.229-0.55-2.492-1.039-3.783-1.465C78.44,17.26,90,32.301,90,50  C90,67.7,78.438,82.743,62.474,87.998z M52.619,89.905c0.536-0.035,1.071-0.073,1.602-0.13C53.69,89.832,53.155,89.87,52.619,89.905  z M54.694,89.715c0.541-0.063,1.081-0.132,1.615-0.217C55.775,89.583,55.235,89.651,54.694,89.715z M56.683,89.431  c0.568-0.097,1.134-0.2,1.694-0.32C57.816,89.23,57.251,89.335,56.683,89.431z M58.635,89.051c0.599-0.133,1.193-0.275,1.781-0.436  C59.828,88.774,59.233,88.918,58.635,89.051z M60.562,88.574c0.625-0.172,1.244-0.356,1.856-0.558  C61.807,88.217,61.188,88.402,60.562,88.574z M52.62,10.095c0.536,0.035,1.07,0.073,1.601,0.129  C53.69,10.168,53.156,10.13,52.62,10.095z M54.697,10.285c0.54,0.063,1.078,0.132,1.611,0.217  C55.775,10.417,55.237,10.349,54.697,10.285z M56.686,10.569c0.567,0.096,1.132,0.2,1.69,0.32  C57.817,10.769,57.253,10.666,56.686,10.569z M58.637,10.95c0.598,0.132,1.191,0.276,1.778,0.435  C59.828,11.225,59.234,11.083,58.637,10.95z M60.566,11.427c0.623,0.171,1.24,0.356,1.852,0.556  C61.808,11.783,61.189,11.599,60.566,11.427z"></path></svg>