<svg xmlns="http://www.w3.org/2000/svg" xmlns:xlink="http://www.w3.org/1999/xlink" version="1.1" x="0px" y="0px" viewBox="0 0 100 100" enable-background="new 0 0 100 100" xml:space="preserve"><g><g><g><path fill="#000000" d="M50,5C25.147,5,5,25.146,5,50c0,24.853,20.147,45,45,45c24.854,0,45-20.147,45-45     C95,25.146,74.854,5,50,5z M50,90c-0.508,0-1.011-0.02-1.515-0.038c0.438-0.02,0.874-0.045,1.309-0.075     c-7.346-4.073-13.41-10.365-17.442-18.021c0.914,1.056,2.247,1.738,3.753,1.738c2.751,0,4.981-2.23,4.981-4.981     c0-2.752-2.23-4.981-4.981-4.981c-2.751,0-4.981,2.229-4.981,4.981c0,0.316,0.037,0.624,0.093,0.924     C28.516,63.633,26.981,57.011,26.981,50c0-4.972,0.784-9.744,2.189-14.214c1.304,0.667,2.776,1.05,4.341,1.05     c5.279,0,9.559-4.278,9.559-9.558c0-3.433-1.815-6.434-4.532-8.119c3.236-3.638,7.037-6.706,11.256-9.045     c-0.436-0.031-0.873-0.056-1.312-0.076C48.987,10.02,49.491,10,50,10c22.056,0,40,17.944,40,40C90,72.056,72.056,90,50,90z"></path></g></g><g><circle fill="#000000" cx="79.727" cy="37.04" r="4.052"></circle></g><g><circle fill="#000000" cx="75.675" cy="52.436" r="7.669"></circle></g><g><path fill="#000000" d="M69.988,40.787c0-3.731-3.024-6.755-6.755-6.755c-0.217,0-0.43,0.013-0.642,0.032    c0.451-0.905,0.711-1.922,0.711-3.002c0-3.73-3.024-6.754-6.754-6.754c-3.73,0-6.754,3.023-6.754,6.754s3.024,6.754,6.754,6.754    c0.217,0,0.43-0.012,0.642-0.032c-0.451,0.905-0.711,1.923-0.711,3.003c0,3.73,3.024,6.754,6.754,6.754    C66.964,47.541,69.988,44.518,69.988,40.787z"></path></g><g><circle fill="#000000" cx="38.088" cy="60.105" r="3.052"></circle></g></g></svg>