<svg xmlns="http://www.w3.org/2000/svg" xmlns:xlink="http://www.w3.org/1999/xlink" version="1.1" x="0px" y="0px" viewBox="0 0 100 100" enable-background="new 0 0 100 100" xml:space="preserve"><path d="M24.913,43.247c0-1.195,0.969-2.163,2.163-2.163h25.41c2.305,0,4.181-1.876,4.181-4.182s-1.876-4.182-4.181-4.182  c-2.306,0-4.182,1.876-4.182,4.182c0,1.195-0.969,2.163-2.163,2.163c-1.195,0-2.163-0.968-2.163-2.163  c0-4.692,3.817-8.508,8.508-8.508c4.691,0,8.508,3.817,8.508,8.508c0,4.46-3.45,8.122-7.821,8.474  c-0.113,0.018-0.227,0.035-0.345,0.035H27.077C25.882,45.41,24.913,44.442,24.913,43.247z M78.634,43.769  c0-4.692-3.817-8.508-8.508-8.508c-4.692,0-8.508,3.817-8.508,8.508c0,1.195,0.968,2.163,2.163,2.163s2.163-0.969,2.163-2.163  c0-2.306,1.876-4.182,4.182-4.182c2.306,0,4.182,1.876,4.182,4.182c0,2.306-1.876,4.182-4.182,4.182H23.529  c-1.195,0-2.163,0.968-2.163,2.163s0.969,2.163,2.163,2.163h46.939c0.118,0,0.232-0.017,0.346-0.035  C75.184,51.89,78.634,48.228,78.634,43.769z M60.939,54.625c-0.113-0.018-0.227-0.035-0.346-0.035H29.706  c-1.195,0-2.163,0.968-2.163,2.163s0.968,2.163,2.163,2.163h30.545c2.306,0,4.182,1.876,4.182,4.181  c0,2.306-1.876,4.182-4.182,4.182c-2.306,0-4.182-1.876-4.182-4.182c0-1.195-0.969-2.163-2.163-2.163  c-1.195,0-2.163,0.968-2.163,2.163c0,4.692,3.817,8.508,8.508,8.508s8.508-3.817,8.508-8.508  C68.759,58.639,65.309,54.977,60.939,54.625z"></path></svg>